<mxfile host="Electron" agent="Mozilla/5.0 (Windows NT 10.0; Win64; x64) AppleWebKit/537.36 (KHTML, like Gecko) draw.io/25.0.1 Chrome/128.0.6613.186 Electron/32.2.6 Safari/537.36" version="25.0.1" pages="4">
  <diagram name="ERD" id="4QpLpbk8ukQxJOYP4vcf">
    <mxGraphModel dx="1434" dy="836" grid="1" gridSize="10" guides="1" tooltips="1" connect="1" arrows="1" fold="1" page="1" pageScale="1" pageWidth="850" pageHeight="1100" math="0" shadow="0">
      <root>
        <mxCell id="0" />
        <mxCell id="1" parent="0" />
        <mxCell id="PbEAKgXbcagQRrwIMyHC-14" value="University" style="shape=table;startSize=30;container=1;collapsible=1;childLayout=tableLayout;fixedRows=1;rowLines=0;fontStyle=1;align=center;resizeLast=1;html=1;" parent="1" vertex="1">
          <mxGeometry y="360" width="180" height="120" as="geometry" />
        </mxCell>
        <mxCell id="PbEAKgXbcagQRrwIMyHC-15" value="" style="shape=tableRow;horizontal=0;startSize=0;swimlaneHead=0;swimlaneBody=0;fillColor=none;collapsible=0;dropTarget=0;points=[[0,0.5],[1,0.5]];portConstraint=eastwest;top=0;left=0;right=0;bottom=1;" parent="PbEAKgXbcagQRrwIMyHC-14" vertex="1">
          <mxGeometry y="30" width="180" height="30" as="geometry" />
        </mxCell>
        <mxCell id="PbEAKgXbcagQRrwIMyHC-16" value="PK" style="shape=partialRectangle;connectable=0;fillColor=none;top=0;left=0;bottom=0;right=0;fontStyle=1;overflow=hidden;whiteSpace=wrap;html=1;" parent="PbEAKgXbcagQRrwIMyHC-15" vertex="1">
          <mxGeometry width="30" height="30" as="geometry">
            <mxRectangle width="30" height="30" as="alternateBounds" />
          </mxGeometry>
        </mxCell>
        <mxCell id="PbEAKgXbcagQRrwIMyHC-17" value="UniversityID" style="shape=partialRectangle;connectable=0;fillColor=none;top=0;left=0;bottom=0;right=0;align=left;spacingLeft=6;fontStyle=5;overflow=hidden;whiteSpace=wrap;html=1;" parent="PbEAKgXbcagQRrwIMyHC-15" vertex="1">
          <mxGeometry x="30" width="150" height="30" as="geometry">
            <mxRectangle width="150" height="30" as="alternateBounds" />
          </mxGeometry>
        </mxCell>
        <mxCell id="PbEAKgXbcagQRrwIMyHC-18" value="" style="shape=tableRow;horizontal=0;startSize=0;swimlaneHead=0;swimlaneBody=0;fillColor=none;collapsible=0;dropTarget=0;points=[[0,0.5],[1,0.5]];portConstraint=eastwest;top=0;left=0;right=0;bottom=0;" parent="PbEAKgXbcagQRrwIMyHC-14" vertex="1">
          <mxGeometry y="60" width="180" height="30" as="geometry" />
        </mxCell>
        <mxCell id="PbEAKgXbcagQRrwIMyHC-19" value="" style="shape=partialRectangle;connectable=0;fillColor=none;top=0;left=0;bottom=0;right=0;editable=1;overflow=hidden;whiteSpace=wrap;html=1;" parent="PbEAKgXbcagQRrwIMyHC-18" vertex="1">
          <mxGeometry width="30" height="30" as="geometry">
            <mxRectangle width="30" height="30" as="alternateBounds" />
          </mxGeometry>
        </mxCell>
        <mxCell id="PbEAKgXbcagQRrwIMyHC-20" value="UnversityName" style="shape=partialRectangle;connectable=0;fillColor=none;top=0;left=0;bottom=0;right=0;align=left;spacingLeft=6;overflow=hidden;whiteSpace=wrap;html=1;" parent="PbEAKgXbcagQRrwIMyHC-18" vertex="1">
          <mxGeometry x="30" width="150" height="30" as="geometry">
            <mxRectangle width="150" height="30" as="alternateBounds" />
          </mxGeometry>
        </mxCell>
        <mxCell id="PbEAKgXbcagQRrwIMyHC-21" value="" style="shape=tableRow;horizontal=0;startSize=0;swimlaneHead=0;swimlaneBody=0;fillColor=none;collapsible=0;dropTarget=0;points=[[0,0.5],[1,0.5]];portConstraint=eastwest;top=0;left=0;right=0;bottom=0;" parent="PbEAKgXbcagQRrwIMyHC-14" vertex="1">
          <mxGeometry y="90" width="180" height="30" as="geometry" />
        </mxCell>
        <mxCell id="PbEAKgXbcagQRrwIMyHC-22" value="" style="shape=partialRectangle;connectable=0;fillColor=none;top=0;left=0;bottom=0;right=0;editable=1;overflow=hidden;whiteSpace=wrap;html=1;" parent="PbEAKgXbcagQRrwIMyHC-21" vertex="1">
          <mxGeometry width="30" height="30" as="geometry">
            <mxRectangle width="30" height="30" as="alternateBounds" />
          </mxGeometry>
        </mxCell>
        <mxCell id="PbEAKgXbcagQRrwIMyHC-23" value="State" style="shape=partialRectangle;connectable=0;fillColor=none;top=0;left=0;bottom=0;right=0;align=left;spacingLeft=6;overflow=hidden;whiteSpace=wrap;html=1;" parent="PbEAKgXbcagQRrwIMyHC-21" vertex="1">
          <mxGeometry x="30" width="150" height="30" as="geometry">
            <mxRectangle width="150" height="30" as="alternateBounds" />
          </mxGeometry>
        </mxCell>
        <mxCell id="PbEAKgXbcagQRrwIMyHC-27" value="Course" style="shape=table;startSize=30;container=1;collapsible=1;childLayout=tableLayout;fixedRows=1;rowLines=0;fontStyle=1;align=center;resizeLast=1;html=1;" parent="1" vertex="1">
          <mxGeometry x="680" y="360" width="180" height="150" as="geometry" />
        </mxCell>
        <mxCell id="PbEAKgXbcagQRrwIMyHC-28" value="" style="shape=tableRow;horizontal=0;startSize=0;swimlaneHead=0;swimlaneBody=0;fillColor=none;collapsible=0;dropTarget=0;points=[[0,0.5],[1,0.5]];portConstraint=eastwest;top=0;left=0;right=0;bottom=1;" parent="PbEAKgXbcagQRrwIMyHC-27" vertex="1">
          <mxGeometry y="30" width="180" height="30" as="geometry" />
        </mxCell>
        <mxCell id="PbEAKgXbcagQRrwIMyHC-29" value="PK" style="shape=partialRectangle;connectable=0;fillColor=none;top=0;left=0;bottom=0;right=0;fontStyle=1;overflow=hidden;whiteSpace=wrap;html=1;" parent="PbEAKgXbcagQRrwIMyHC-28" vertex="1">
          <mxGeometry width="30" height="30" as="geometry">
            <mxRectangle width="30" height="30" as="alternateBounds" />
          </mxGeometry>
        </mxCell>
        <mxCell id="PbEAKgXbcagQRrwIMyHC-30" value="CourseCode" style="shape=partialRectangle;connectable=0;fillColor=none;top=0;left=0;bottom=0;right=0;align=left;spacingLeft=6;fontStyle=5;overflow=hidden;whiteSpace=wrap;html=1;" parent="PbEAKgXbcagQRrwIMyHC-28" vertex="1">
          <mxGeometry x="30" width="150" height="30" as="geometry">
            <mxRectangle width="150" height="30" as="alternateBounds" />
          </mxGeometry>
        </mxCell>
        <mxCell id="PbEAKgXbcagQRrwIMyHC-31" value="" style="shape=tableRow;horizontal=0;startSize=0;swimlaneHead=0;swimlaneBody=0;fillColor=none;collapsible=0;dropTarget=0;points=[[0,0.5],[1,0.5]];portConstraint=eastwest;top=0;left=0;right=0;bottom=0;" parent="PbEAKgXbcagQRrwIMyHC-27" vertex="1">
          <mxGeometry y="60" width="180" height="30" as="geometry" />
        </mxCell>
        <mxCell id="PbEAKgXbcagQRrwIMyHC-32" value="" style="shape=partialRectangle;connectable=0;fillColor=none;top=0;left=0;bottom=0;right=0;editable=1;overflow=hidden;whiteSpace=wrap;html=1;" parent="PbEAKgXbcagQRrwIMyHC-31" vertex="1">
          <mxGeometry width="30" height="30" as="geometry">
            <mxRectangle width="30" height="30" as="alternateBounds" />
          </mxGeometry>
        </mxCell>
        <mxCell id="PbEAKgXbcagQRrwIMyHC-33" value="CourseTitle" style="shape=partialRectangle;connectable=0;fillColor=none;top=0;left=0;bottom=0;right=0;align=left;spacingLeft=6;overflow=hidden;whiteSpace=wrap;html=1;" parent="PbEAKgXbcagQRrwIMyHC-31" vertex="1">
          <mxGeometry x="30" width="150" height="30" as="geometry">
            <mxRectangle width="150" height="30" as="alternateBounds" />
          </mxGeometry>
        </mxCell>
        <mxCell id="PbEAKgXbcagQRrwIMyHC-34" value="" style="shape=tableRow;horizontal=0;startSize=0;swimlaneHead=0;swimlaneBody=0;fillColor=none;collapsible=0;dropTarget=0;points=[[0,0.5],[1,0.5]];portConstraint=eastwest;top=0;left=0;right=0;bottom=0;" parent="PbEAKgXbcagQRrwIMyHC-27" vertex="1">
          <mxGeometry y="90" width="180" height="30" as="geometry" />
        </mxCell>
        <mxCell id="PbEAKgXbcagQRrwIMyHC-35" value="" style="shape=partialRectangle;connectable=0;fillColor=none;top=0;left=0;bottom=0;right=0;editable=1;overflow=hidden;whiteSpace=wrap;html=1;" parent="PbEAKgXbcagQRrwIMyHC-34" vertex="1">
          <mxGeometry width="30" height="30" as="geometry">
            <mxRectangle width="30" height="30" as="alternateBounds" />
          </mxGeometry>
        </mxCell>
        <mxCell id="PbEAKgXbcagQRrwIMyHC-36" value="ProgramLvl" style="shape=partialRectangle;connectable=0;fillColor=none;top=0;left=0;bottom=0;right=0;align=left;spacingLeft=6;overflow=hidden;whiteSpace=wrap;html=1;" parent="PbEAKgXbcagQRrwIMyHC-34" vertex="1">
          <mxGeometry x="30" width="150" height="30" as="geometry">
            <mxRectangle width="150" height="30" as="alternateBounds" />
          </mxGeometry>
        </mxCell>
        <mxCell id="PbEAKgXbcagQRrwIMyHC-37" value="" style="shape=tableRow;horizontal=0;startSize=0;swimlaneHead=0;swimlaneBody=0;fillColor=none;collapsible=0;dropTarget=0;points=[[0,0.5],[1,0.5]];portConstraint=eastwest;top=0;left=0;right=0;bottom=0;" parent="PbEAKgXbcagQRrwIMyHC-27" vertex="1">
          <mxGeometry y="120" width="180" height="30" as="geometry" />
        </mxCell>
        <mxCell id="PbEAKgXbcagQRrwIMyHC-38" value="" style="shape=partialRectangle;connectable=0;fillColor=none;top=0;left=0;bottom=0;right=0;editable=1;overflow=hidden;whiteSpace=wrap;html=1;" parent="PbEAKgXbcagQRrwIMyHC-37" vertex="1">
          <mxGeometry width="30" height="30" as="geometry">
            <mxRectangle width="30" height="30" as="alternateBounds" />
          </mxGeometry>
        </mxCell>
        <mxCell id="PbEAKgXbcagQRrwIMyHC-39" value="TuitionFees" style="shape=partialRectangle;connectable=0;fillColor=none;top=0;left=0;bottom=0;right=0;align=left;spacingLeft=6;overflow=hidden;whiteSpace=wrap;html=1;" parent="PbEAKgXbcagQRrwIMyHC-37" vertex="1">
          <mxGeometry x="30" width="150" height="30" as="geometry">
            <mxRectangle width="150" height="30" as="alternateBounds" />
          </mxGeometry>
        </mxCell>
        <mxCell id="PbEAKgXbcagQRrwIMyHC-40" value="UniversityCourse" style="shape=table;startSize=30;container=1;collapsible=1;childLayout=tableLayout;fixedRows=1;rowLines=0;fontStyle=1;align=center;resizeLast=1;html=1;" parent="1" vertex="1">
          <mxGeometry x="335" y="360" width="180" height="90" as="geometry" />
        </mxCell>
        <mxCell id="PbEAKgXbcagQRrwIMyHC-53" value="" style="shape=tableRow;horizontal=0;startSize=0;swimlaneHead=0;swimlaneBody=0;fillColor=none;collapsible=0;dropTarget=0;points=[[0,0.5],[1,0.5]];portConstraint=eastwest;top=0;left=0;right=0;bottom=0;" parent="PbEAKgXbcagQRrwIMyHC-40" vertex="1">
          <mxGeometry y="30" width="180" height="30" as="geometry" />
        </mxCell>
        <mxCell id="PbEAKgXbcagQRrwIMyHC-54" value="FK" style="shape=partialRectangle;connectable=0;fillColor=none;top=0;left=0;bottom=0;right=0;fontStyle=0;overflow=hidden;whiteSpace=wrap;html=1;" parent="PbEAKgXbcagQRrwIMyHC-53" vertex="1">
          <mxGeometry width="30" height="30" as="geometry">
            <mxRectangle width="30" height="30" as="alternateBounds" />
          </mxGeometry>
        </mxCell>
        <mxCell id="PbEAKgXbcagQRrwIMyHC-55" value="UniversityID" style="shape=partialRectangle;connectable=0;fillColor=none;top=0;left=0;bottom=0;right=0;align=left;spacingLeft=6;fontStyle=0;overflow=hidden;whiteSpace=wrap;html=1;" parent="PbEAKgXbcagQRrwIMyHC-53" vertex="1">
          <mxGeometry x="30" width="150" height="30" as="geometry">
            <mxRectangle width="150" height="30" as="alternateBounds" />
          </mxGeometry>
        </mxCell>
        <mxCell id="PbEAKgXbcagQRrwIMyHC-56" value="" style="shape=tableRow;horizontal=0;startSize=0;swimlaneHead=0;swimlaneBody=0;fillColor=none;collapsible=0;dropTarget=0;points=[[0,0.5],[1,0.5]];portConstraint=eastwest;top=0;left=0;right=0;bottom=0;" parent="PbEAKgXbcagQRrwIMyHC-40" vertex="1">
          <mxGeometry y="60" width="180" height="30" as="geometry" />
        </mxCell>
        <mxCell id="PbEAKgXbcagQRrwIMyHC-57" value="FK" style="shape=partialRectangle;connectable=0;fillColor=none;top=0;left=0;bottom=0;right=0;fontStyle=0;overflow=hidden;whiteSpace=wrap;html=1;" parent="PbEAKgXbcagQRrwIMyHC-56" vertex="1">
          <mxGeometry width="30" height="30" as="geometry">
            <mxRectangle width="30" height="30" as="alternateBounds" />
          </mxGeometry>
        </mxCell>
        <mxCell id="PbEAKgXbcagQRrwIMyHC-58" value="CourseCode" style="shape=partialRectangle;connectable=0;fillColor=none;top=0;left=0;bottom=0;right=0;align=left;spacingLeft=6;fontStyle=0;overflow=hidden;whiteSpace=wrap;html=1;" parent="PbEAKgXbcagQRrwIMyHC-56" vertex="1">
          <mxGeometry x="30" width="150" height="30" as="geometry">
            <mxRectangle width="150" height="30" as="alternateBounds" />
          </mxGeometry>
        </mxCell>
        <mxCell id="PbEAKgXbcagQRrwIMyHC-59" style="edgeStyle=orthogonalEdgeStyle;rounded=0;orthogonalLoop=1;jettySize=auto;html=1;entryX=0;entryY=0.5;entryDx=0;entryDy=0;endArrow=ERoneToMany;endFill=0;startArrow=ERzeroToOne;startFill=0;strokeWidth=2;endSize=10;startSize=10;" parent="1" source="PbEAKgXbcagQRrwIMyHC-18" target="PbEAKgXbcagQRrwIMyHC-56" edge="1">
          <mxGeometry relative="1" as="geometry" />
        </mxCell>
        <mxCell id="PbEAKgXbcagQRrwIMyHC-60" style="edgeStyle=orthogonalEdgeStyle;rounded=0;orthogonalLoop=1;jettySize=auto;html=1;entryX=0;entryY=0.5;entryDx=0;entryDy=0;strokeWidth=2;endSize=10;startSize=10;endArrow=ERoneToMany;endFill=0;startArrow=ERzeroToMany;startFill=0;" parent="1" source="PbEAKgXbcagQRrwIMyHC-56" target="PbEAKgXbcagQRrwIMyHC-31" edge="1">
          <mxGeometry relative="1" as="geometry" />
        </mxCell>
        <mxCell id="PbEAKgXbcagQRrwIMyHC-61" value="Can Have" style="text;html=1;align=center;verticalAlign=middle;whiteSpace=wrap;rounded=0;fontStyle=1;fontSize=15;" parent="1" vertex="1">
          <mxGeometry x="220" y="390" width="80" height="30" as="geometry" />
        </mxCell>
        <mxCell id="PbEAKgXbcagQRrwIMyHC-62" value="Can Have" style="text;html=1;align=center;verticalAlign=middle;whiteSpace=wrap;rounded=0;fontStyle=1;fontSize=15;" parent="1" vertex="1">
          <mxGeometry x="560" y="390" width="80" height="30" as="geometry" />
        </mxCell>
      </root>
    </mxGraphModel>
  </diagram>
  <diagram id="_iTzd0gFaUVzEnz2nnlp" name="DFD">
    <mxGraphModel dx="2899" dy="1194" grid="1" gridSize="10" guides="1" tooltips="1" connect="1" arrows="1" fold="1" page="1" pageScale="1" pageWidth="850" pageHeight="1100" math="0" shadow="0">
      <root>
        <mxCell id="0" />
        <mxCell id="1" parent="0" />
        <mxCell id="tfatN2HzPKrfKNg3miX_-16" value="" style="group" vertex="1" connectable="0" parent="1">
          <mxGeometry x="240" y="80" width="160" height="120" as="geometry" />
        </mxCell>
        <mxCell id="tfatN2HzPKrfKNg3miX_-14" value="1" style="rounded=0;whiteSpace=wrap;html=1;fontStyle=1;fontSize=20;" vertex="1" parent="tfatN2HzPKrfKNg3miX_-16">
          <mxGeometry width="160" height="40" as="geometry" />
        </mxCell>
        <mxCell id="tfatN2HzPKrfKNg3miX_-15" value="Authentication" style="rounded=0;whiteSpace=wrap;html=1;fontSize=15;" vertex="1" parent="tfatN2HzPKrfKNg3miX_-16">
          <mxGeometry y="40" width="160" height="80" as="geometry" />
        </mxCell>
        <mxCell id="tfatN2HzPKrfKNg3miX_-17" value="" style="group" vertex="1" connectable="0" parent="1">
          <mxGeometry x="602" y="80" width="160" height="120" as="geometry" />
        </mxCell>
        <mxCell id="tfatN2HzPKrfKNg3miX_-18" value="2" style="rounded=0;whiteSpace=wrap;html=1;fontStyle=1;fontSize=20;" vertex="1" parent="tfatN2HzPKrfKNg3miX_-17">
          <mxGeometry width="160" height="40" as="geometry" />
        </mxCell>
        <mxCell id="tfatN2HzPKrfKNg3miX_-19" value="View University" style="rounded=0;whiteSpace=wrap;html=1;fontSize=15;" vertex="1" parent="tfatN2HzPKrfKNg3miX_-17">
          <mxGeometry y="40" width="160" height="80" as="geometry" />
        </mxCell>
        <mxCell id="tfatN2HzPKrfKNg3miX_-20" value="" style="group" vertex="1" connectable="0" parent="1">
          <mxGeometry x="240" y="258" width="160" height="120" as="geometry" />
        </mxCell>
        <mxCell id="tfatN2HzPKrfKNg3miX_-21" value="3" style="rounded=0;whiteSpace=wrap;html=1;fontStyle=1;fontSize=20;" vertex="1" parent="tfatN2HzPKrfKNg3miX_-20">
          <mxGeometry width="160" height="40" as="geometry" />
        </mxCell>
        <mxCell id="tfatN2HzPKrfKNg3miX_-22" value="Edit Universities" style="rounded=0;whiteSpace=wrap;html=1;fontSize=15;" vertex="1" parent="tfatN2HzPKrfKNg3miX_-20">
          <mxGeometry y="40" width="160" height="80" as="geometry" />
        </mxCell>
        <mxCell id="tfatN2HzPKrfKNg3miX_-23" value="" style="group" vertex="1" connectable="0" parent="1">
          <mxGeometry x="602" y="258" width="160" height="120" as="geometry" />
        </mxCell>
        <mxCell id="tfatN2HzPKrfKNg3miX_-24" value="4" style="rounded=0;whiteSpace=wrap;html=1;fontStyle=1;fontSize=20;" vertex="1" parent="tfatN2HzPKrfKNg3miX_-23">
          <mxGeometry width="160" height="40" as="geometry" />
        </mxCell>
        <mxCell id="tfatN2HzPKrfKNg3miX_-25" value="Edit Courses" style="rounded=0;whiteSpace=wrap;html=1;fontSize=15;" vertex="1" parent="tfatN2HzPKrfKNg3miX_-23">
          <mxGeometry y="40" width="160" height="80" as="geometry" />
        </mxCell>
        <mxCell id="tfatN2HzPKrfKNg3miX_-26" value="" style="group" vertex="1" connectable="0" parent="1">
          <mxGeometry x="602" y="540" width="160" height="120" as="geometry" />
        </mxCell>
        <mxCell id="tfatN2HzPKrfKNg3miX_-27" value="5" style="rounded=0;whiteSpace=wrap;html=1;fontStyle=1;fontSize=20;" vertex="1" parent="tfatN2HzPKrfKNg3miX_-26">
          <mxGeometry width="160" height="40" as="geometry" />
        </mxCell>
        <mxCell id="tfatN2HzPKrfKNg3miX_-28" value="Delete Courses" style="rounded=0;whiteSpace=wrap;html=1;fontSize=15;" vertex="1" parent="tfatN2HzPKrfKNg3miX_-26">
          <mxGeometry y="40" width="160" height="80" as="geometry" />
        </mxCell>
        <mxCell id="tfatN2HzPKrfKNg3miX_-29" value="" style="group" vertex="1" connectable="0" parent="1">
          <mxGeometry x="240" y="540" width="160" height="120" as="geometry" />
        </mxCell>
        <mxCell id="tfatN2HzPKrfKNg3miX_-30" value="6" style="rounded=0;whiteSpace=wrap;html=1;fontStyle=1;fontSize=20;" vertex="1" parent="tfatN2HzPKrfKNg3miX_-29">
          <mxGeometry width="160" height="40" as="geometry" />
        </mxCell>
        <mxCell id="tfatN2HzPKrfKNg3miX_-31" value="Create Courses" style="rounded=0;whiteSpace=wrap;html=1;fontSize=15;" vertex="1" parent="tfatN2HzPKrfKNg3miX_-29">
          <mxGeometry y="40" width="160" height="80" as="geometry" />
        </mxCell>
        <mxCell id="tfatN2HzPKrfKNg3miX_-32" value="Public" style="rounded=0;whiteSpace=wrap;html=1;fontStyle=1;fontSize=20;" vertex="1" parent="1">
          <mxGeometry x="1082" y="148" width="120" height="40" as="geometry" />
        </mxCell>
        <mxCell id="tfatN2HzPKrfKNg3miX_-37" style="edgeStyle=orthogonalEdgeStyle;rounded=0;orthogonalLoop=1;jettySize=auto;html=1;entryX=0;entryY=0.25;entryDx=0;entryDy=0;exitX=1;exitY=0.25;exitDx=0;exitDy=0;" edge="1" parent="1" source="tfatN2HzPKrfKNg3miX_-33" target="tfatN2HzPKrfKNg3miX_-15">
          <mxGeometry relative="1" as="geometry" />
        </mxCell>
        <mxCell id="tfatN2HzPKrfKNg3miX_-33" value="Admin" style="rounded=0;whiteSpace=wrap;html=1;fontStyle=1;fontSize=20;" vertex="1" parent="1">
          <mxGeometry x="-160" y="130" width="120" height="40" as="geometry" />
        </mxCell>
        <mxCell id="tfatN2HzPKrfKNg3miX_-38" value="Admin Credentials" style="text;html=1;align=center;verticalAlign=middle;whiteSpace=wrap;rounded=0;fontSize=20;" vertex="1" parent="1">
          <mxGeometry x="15" y="106" width="170" height="30" as="geometry" />
        </mxCell>
        <mxCell id="tfatN2HzPKrfKNg3miX_-39" style="edgeStyle=orthogonalEdgeStyle;rounded=0;orthogonalLoop=1;jettySize=auto;html=1;exitX=0;exitY=0.5;exitDx=0;exitDy=0;entryX=1;entryY=0.75;entryDx=0;entryDy=0;" edge="1" parent="1" source="tfatN2HzPKrfKNg3miX_-15" target="tfatN2HzPKrfKNg3miX_-33">
          <mxGeometry relative="1" as="geometry" />
        </mxCell>
        <mxCell id="tfatN2HzPKrfKNg3miX_-40" value="Login Status" style="text;html=1;align=center;verticalAlign=middle;whiteSpace=wrap;rounded=0;fontSize=20;" vertex="1" parent="1">
          <mxGeometry x="15" y="165" width="170" height="30" as="geometry" />
        </mxCell>
        <mxCell id="tfatN2HzPKrfKNg3miX_-43" style="edgeStyle=orthogonalEdgeStyle;rounded=0;orthogonalLoop=1;jettySize=auto;html=1;exitX=0;exitY=0.25;exitDx=0;exitDy=0;entryX=1;entryY=0.25;entryDx=0;entryDy=0;" edge="1" parent="1" source="tfatN2HzPKrfKNg3miX_-41" target="tfatN2HzPKrfKNg3miX_-18">
          <mxGeometry relative="1" as="geometry" />
        </mxCell>
        <mxCell id="tfatN2HzPKrfKNg3miX_-41" value="Admin" style="rounded=0;whiteSpace=wrap;html=1;fontStyle=1;fontSize=20;" vertex="1" parent="1">
          <mxGeometry x="1082" y="80" width="120" height="40" as="geometry" />
        </mxCell>
        <mxCell id="tfatN2HzPKrfKNg3miX_-44" style="edgeStyle=orthogonalEdgeStyle;rounded=0;orthogonalLoop=1;jettySize=auto;html=1;exitX=1;exitY=0.75;exitDx=0;exitDy=0;entryX=0;entryY=0.75;entryDx=0;entryDy=0;" edge="1" parent="1" source="tfatN2HzPKrfKNg3miX_-18" target="tfatN2HzPKrfKNg3miX_-41">
          <mxGeometry relative="1" as="geometry" />
        </mxCell>
        <mxCell id="tfatN2HzPKrfKNg3miX_-46" value="University Details" style="text;html=1;align=center;verticalAlign=middle;whiteSpace=wrap;rounded=0;fontSize=20;" vertex="1" parent="1">
          <mxGeometry x="787" y="112" width="280" height="30" as="geometry" />
        </mxCell>
        <mxCell id="tfatN2HzPKrfKNg3miX_-47" style="edgeStyle=orthogonalEdgeStyle;rounded=0;orthogonalLoop=1;jettySize=auto;html=1;exitX=1.006;exitY=0.6;exitDx=0;exitDy=0;entryX=0;entryY=0.5;entryDx=0;entryDy=0;exitPerimeter=0;" edge="1" parent="1" source="tfatN2HzPKrfKNg3miX_-19" target="tfatN2HzPKrfKNg3miX_-32">
          <mxGeometry relative="1" as="geometry" />
        </mxCell>
        <mxCell id="tfatN2HzPKrfKNg3miX_-50" value="Admin Credentials" style="text;html=1;align=center;verticalAlign=middle;whiteSpace=wrap;rounded=0;fontSize=20;" vertex="1" parent="1">
          <mxGeometry x="842" y="58" width="170" height="30" as="geometry" />
        </mxCell>
        <mxCell id="tfatN2HzPKrfKNg3miX_-51" value="University Details" style="text;html=1;align=center;verticalAlign=middle;whiteSpace=wrap;rounded=0;fontSize=20;" vertex="1" parent="1">
          <mxGeometry x="787" y="172" width="280" height="30" as="geometry" />
        </mxCell>
        <mxCell id="tfatN2HzPKrfKNg3miX_-53" style="edgeStyle=orthogonalEdgeStyle;rounded=0;orthogonalLoop=1;jettySize=auto;html=1;exitX=1;exitY=0.25;exitDx=0;exitDy=0;entryX=0;entryY=0.25;entryDx=0;entryDy=0;" edge="1" parent="1" source="tfatN2HzPKrfKNg3miX_-52" target="tfatN2HzPKrfKNg3miX_-22">
          <mxGeometry relative="1" as="geometry" />
        </mxCell>
        <mxCell id="tfatN2HzPKrfKNg3miX_-52" value="Admin" style="rounded=0;whiteSpace=wrap;html=1;fontStyle=1;fontSize=20;" vertex="1" parent="1">
          <mxGeometry x="-160" y="308" width="120" height="40" as="geometry" />
        </mxCell>
        <mxCell id="tfatN2HzPKrfKNg3miX_-54" style="edgeStyle=orthogonalEdgeStyle;rounded=0;orthogonalLoop=1;jettySize=auto;html=1;exitX=0;exitY=0.5;exitDx=0;exitDy=0;entryX=1;entryY=0.75;entryDx=0;entryDy=0;" edge="1" parent="1" source="tfatN2HzPKrfKNg3miX_-22" target="tfatN2HzPKrfKNg3miX_-52">
          <mxGeometry relative="1" as="geometry" />
        </mxCell>
        <mxCell id="tfatN2HzPKrfKNg3miX_-55" value="Admin Credentials" style="text;html=1;align=center;verticalAlign=middle;whiteSpace=wrap;rounded=0;fontSize=20;" vertex="1" parent="1">
          <mxGeometry x="20" y="283" width="170" height="30" as="geometry" />
        </mxCell>
        <mxCell id="tfatN2HzPKrfKNg3miX_-57" value="University Details" style="text;html=1;align=center;verticalAlign=middle;whiteSpace=wrap;rounded=0;fontSize=20;" vertex="1" parent="1">
          <mxGeometry x="15" y="343" width="175" height="30" as="geometry" />
        </mxCell>
        <mxCell id="tfatN2HzPKrfKNg3miX_-65" style="edgeStyle=orthogonalEdgeStyle;rounded=0;orthogonalLoop=1;jettySize=auto;html=1;exitX=0;exitY=0.25;exitDx=0;exitDy=0;entryX=1;entryY=0.25;entryDx=0;entryDy=0;" edge="1" parent="1" source="tfatN2HzPKrfKNg3miX_-63" target="tfatN2HzPKrfKNg3miX_-25">
          <mxGeometry relative="1" as="geometry" />
        </mxCell>
        <mxCell id="tfatN2HzPKrfKNg3miX_-86" style="edgeStyle=orthogonalEdgeStyle;rounded=0;orthogonalLoop=1;jettySize=auto;html=1;exitX=0.25;exitY=1;exitDx=0;exitDy=0;entryX=0.75;entryY=1;entryDx=0;entryDy=0;" edge="1" parent="1" source="tfatN2HzPKrfKNg3miX_-63" target="tfatN2HzPKrfKNg3miX_-25">
          <mxGeometry relative="1" as="geometry" />
        </mxCell>
        <mxCell id="tfatN2HzPKrfKNg3miX_-63" value="Admin" style="rounded=0;whiteSpace=wrap;html=1;fontStyle=1;fontSize=20;" vertex="1" parent="1">
          <mxGeometry x="1082" y="308" width="120" height="40" as="geometry" />
        </mxCell>
        <mxCell id="tfatN2HzPKrfKNg3miX_-66" style="edgeStyle=orthogonalEdgeStyle;rounded=0;orthogonalLoop=1;jettySize=auto;html=1;entryX=0;entryY=0.75;entryDx=0;entryDy=0;" edge="1" parent="1" source="tfatN2HzPKrfKNg3miX_-25" target="tfatN2HzPKrfKNg3miX_-63">
          <mxGeometry relative="1" as="geometry" />
        </mxCell>
        <mxCell id="tfatN2HzPKrfKNg3miX_-67" value="Admin Credentials" style="text;html=1;align=center;verticalAlign=middle;whiteSpace=wrap;rounded=0;fontSize=20;" vertex="1" parent="1">
          <mxGeometry x="842" y="283" width="170" height="30" as="geometry" />
        </mxCell>
        <mxCell id="tfatN2HzPKrfKNg3miX_-68" value="Course Details" style="text;html=1;align=center;verticalAlign=middle;whiteSpace=wrap;rounded=0;fontSize=20;" vertex="1" parent="1">
          <mxGeometry x="839.5" y="343" width="175" height="30" as="geometry" />
        </mxCell>
        <mxCell id="tfatN2HzPKrfKNg3miX_-79" style="edgeStyle=orthogonalEdgeStyle;rounded=0;orthogonalLoop=1;jettySize=auto;html=1;exitX=1;exitY=0.25;exitDx=0;exitDy=0;entryX=0;entryY=0.25;entryDx=0;entryDy=0;" edge="1" parent="1" source="tfatN2HzPKrfKNg3miX_-77" target="tfatN2HzPKrfKNg3miX_-30">
          <mxGeometry relative="1" as="geometry" />
        </mxCell>
        <mxCell id="tfatN2HzPKrfKNg3miX_-80" style="edgeStyle=orthogonalEdgeStyle;rounded=0;orthogonalLoop=1;jettySize=auto;html=1;entryX=0;entryY=0.5;entryDx=0;entryDy=0;" edge="1" parent="1" source="tfatN2HzPKrfKNg3miX_-77" target="tfatN2HzPKrfKNg3miX_-30">
          <mxGeometry relative="1" as="geometry" />
        </mxCell>
        <mxCell id="tfatN2HzPKrfKNg3miX_-77" value="Admin" style="rounded=0;whiteSpace=wrap;html=1;fontStyle=1;fontSize=20;" vertex="1" parent="1">
          <mxGeometry x="-160" y="540" width="120" height="40" as="geometry" />
        </mxCell>
        <mxCell id="tfatN2HzPKrfKNg3miX_-81" value="Admin Credentials" style="text;html=1;align=center;verticalAlign=middle;whiteSpace=wrap;rounded=0;fontSize=20;" vertex="1" parent="1">
          <mxGeometry x="15" y="514" width="170" height="30" as="geometry" />
        </mxCell>
        <mxCell id="tfatN2HzPKrfKNg3miX_-82" value="Course Details" style="text;html=1;align=center;verticalAlign=middle;whiteSpace=wrap;rounded=0;fontSize=20;" vertex="1" parent="1">
          <mxGeometry x="12.5" y="564" width="175" height="30" as="geometry" />
        </mxCell>
        <mxCell id="tfatN2HzPKrfKNg3miX_-83" style="edgeStyle=orthogonalEdgeStyle;rounded=0;orthogonalLoop=1;jettySize=auto;html=1;exitX=0;exitY=0.5;exitDx=0;exitDy=0;entryX=0.75;entryY=1;entryDx=0;entryDy=0;" edge="1" parent="1" source="tfatN2HzPKrfKNg3miX_-31" target="tfatN2HzPKrfKNg3miX_-77">
          <mxGeometry relative="1" as="geometry" />
        </mxCell>
        <mxCell id="tfatN2HzPKrfKNg3miX_-84" value="Success/ Failure Status" style="text;html=1;align=center;verticalAlign=middle;whiteSpace=wrap;rounded=0;fontSize=20;" vertex="1" parent="1">
          <mxGeometry x="-8.75" y="627" width="217.5" height="30" as="geometry" />
        </mxCell>
        <mxCell id="tfatN2HzPKrfKNg3miX_-88" style="edgeStyle=orthogonalEdgeStyle;rounded=0;orthogonalLoop=1;jettySize=auto;html=1;exitX=0;exitY=0.25;exitDx=0;exitDy=0;entryX=1;entryY=0.25;entryDx=0;entryDy=0;" edge="1" parent="1" source="tfatN2HzPKrfKNg3miX_-85" target="tfatN2HzPKrfKNg3miX_-27">
          <mxGeometry relative="1" as="geometry" />
        </mxCell>
        <mxCell id="tfatN2HzPKrfKNg3miX_-85" value="Admin" style="rounded=0;whiteSpace=wrap;html=1;fontStyle=1;fontSize=20;" vertex="1" parent="1">
          <mxGeometry x="1082" y="540" width="120" height="40" as="geometry" />
        </mxCell>
        <mxCell id="tfatN2HzPKrfKNg3miX_-87" value="Course Details" style="text;html=1;align=center;verticalAlign=middle;whiteSpace=wrap;rounded=0;fontSize=20;" vertex="1" parent="1">
          <mxGeometry x="842" y="404" width="175" height="30" as="geometry" />
        </mxCell>
        <mxCell id="tfatN2HzPKrfKNg3miX_-89" value="Admin Credentials" style="text;html=1;align=center;verticalAlign=middle;whiteSpace=wrap;rounded=0;fontSize=20;" vertex="1" parent="1">
          <mxGeometry x="839.5" y="514" width="170" height="30" as="geometry" />
        </mxCell>
        <mxCell id="tfatN2HzPKrfKNg3miX_-91" value="Course Details" style="text;html=1;align=center;verticalAlign=middle;whiteSpace=wrap;rounded=0;fontSize=20;" vertex="1" parent="1">
          <mxGeometry x="834.5" y="576" width="175" height="30" as="geometry" />
        </mxCell>
        <mxCell id="tfatN2HzPKrfKNg3miX_-92" style="edgeStyle=orthogonalEdgeStyle;rounded=0;orthogonalLoop=1;jettySize=auto;html=1;exitX=1;exitY=0.75;exitDx=0;exitDy=0;entryX=0;entryY=0.75;entryDx=0;entryDy=0;" edge="1" parent="1" source="tfatN2HzPKrfKNg3miX_-27" target="tfatN2HzPKrfKNg3miX_-85">
          <mxGeometry relative="1" as="geometry" />
        </mxCell>
        <mxCell id="tfatN2HzPKrfKNg3miX_-95" value="" style="group" vertex="1" connectable="0" parent="1">
          <mxGeometry x="420" y="430" width="160" height="40" as="geometry" />
        </mxCell>
        <mxCell id="tfatN2HzPKrfKNg3miX_-93" value="D1" style="whiteSpace=wrap;html=1;aspect=fixed;fontStyle=1;fontSize=20;" vertex="1" parent="tfatN2HzPKrfKNg3miX_-95">
          <mxGeometry width="40" height="40" as="geometry" />
        </mxCell>
        <mxCell id="tfatN2HzPKrfKNg3miX_-94" value="Account" style="rounded=0;whiteSpace=wrap;html=1;fontStyle=0;fontSize=20;" vertex="1" parent="tfatN2HzPKrfKNg3miX_-95">
          <mxGeometry x="40" width="120" height="40" as="geometry" />
        </mxCell>
        <mxCell id="tfatN2HzPKrfKNg3miX_-97" value="Admin Credentials" style="text;html=1;align=center;verticalAlign=middle;whiteSpace=wrap;rounded=0;fontSize=20;rotation=-90;" vertex="1" parent="1">
          <mxGeometry x="370" y="270" width="170" height="30" as="geometry" />
        </mxCell>
        <mxCell id="tfatN2HzPKrfKNg3miX_-98" style="edgeStyle=orthogonalEdgeStyle;rounded=0;orthogonalLoop=1;jettySize=auto;html=1;entryX=0.5;entryY=0;entryDx=0;entryDy=0;" edge="1" parent="1" source="tfatN2HzPKrfKNg3miX_-15" target="tfatN2HzPKrfKNg3miX_-93">
          <mxGeometry relative="1" as="geometry" />
        </mxCell>
        <mxCell id="tfatN2HzPKrfKNg3miX_-99" style="edgeStyle=orthogonalEdgeStyle;rounded=0;orthogonalLoop=1;jettySize=auto;html=1;exitX=0;exitY=0.25;exitDx=0;exitDy=0;entryX=0.5;entryY=1;entryDx=0;entryDy=0;" edge="1" parent="1" source="tfatN2HzPKrfKNg3miX_-93" target="tfatN2HzPKrfKNg3miX_-22">
          <mxGeometry relative="1" as="geometry" />
        </mxCell>
        <mxCell id="tfatN2HzPKrfKNg3miX_-101" style="edgeStyle=orthogonalEdgeStyle;rounded=0;orthogonalLoop=1;jettySize=auto;html=1;exitX=0;exitY=0.5;exitDx=0;exitDy=0;entryX=0.5;entryY=0;entryDx=0;entryDy=0;" edge="1" parent="1" source="tfatN2HzPKrfKNg3miX_-93" target="tfatN2HzPKrfKNg3miX_-30">
          <mxGeometry relative="1" as="geometry" />
        </mxCell>
        <mxCell id="tfatN2HzPKrfKNg3miX_-102" value="Admin&amp;nbsp;&lt;div&gt;Credentials&lt;/div&gt;" style="text;html=1;align=center;verticalAlign=middle;whiteSpace=wrap;rounded=0;fontSize=20;rotation=-90;" vertex="1" parent="1">
          <mxGeometry x="208.75" y="450" width="170" height="45" as="geometry" />
        </mxCell>
        <mxCell id="tfatN2HzPKrfKNg3miX_-103" style="edgeStyle=orthogonalEdgeStyle;rounded=0;orthogonalLoop=1;jettySize=auto;html=1;entryX=0;entryY=0.25;entryDx=0;entryDy=0;" edge="1" parent="1" source="tfatN2HzPKrfKNg3miX_-94" target="tfatN2HzPKrfKNg3miX_-19">
          <mxGeometry relative="1" as="geometry">
            <Array as="points">
              <mxPoint x="510" y="140" />
            </Array>
          </mxGeometry>
        </mxCell>
        <mxCell id="tfatN2HzPKrfKNg3miX_-104" style="edgeStyle=orthogonalEdgeStyle;rounded=0;orthogonalLoop=1;jettySize=auto;html=1;entryX=0;entryY=0.25;entryDx=0;entryDy=0;exitX=0.5;exitY=0;exitDx=0;exitDy=0;" edge="1" parent="1" source="tfatN2HzPKrfKNg3miX_-94" target="tfatN2HzPKrfKNg3miX_-25">
          <mxGeometry relative="1" as="geometry" />
        </mxCell>
        <mxCell id="tfatN2HzPKrfKNg3miX_-105" style="edgeStyle=orthogonalEdgeStyle;rounded=0;orthogonalLoop=1;jettySize=auto;html=1;exitX=0.75;exitY=1;exitDx=0;exitDy=0;entryX=0;entryY=0.5;entryDx=0;entryDy=0;" edge="1" parent="1" source="tfatN2HzPKrfKNg3miX_-94" target="tfatN2HzPKrfKNg3miX_-28">
          <mxGeometry relative="1" as="geometry" />
        </mxCell>
        <mxCell id="tfatN2HzPKrfKNg3miX_-106" value="Admin Credentials" style="text;html=1;align=center;verticalAlign=middle;whiteSpace=wrap;rounded=0;fontSize=20;rotation=-90;" vertex="1" parent="1">
          <mxGeometry x="450" y="210" width="170" height="30" as="geometry" />
        </mxCell>
        <mxCell id="tfatN2HzPKrfKNg3miX_-108" value="Admin Credentials" style="text;html=1;align=center;verticalAlign=middle;whiteSpace=wrap;rounded=0;fontSize=20;rotation=-90;" vertex="1" parent="1">
          <mxGeometry x="482" y="354" width="120" height="50" as="geometry" />
        </mxCell>
        <mxCell id="tfatN2HzPKrfKNg3miX_-109" value="Admin Credentials" style="text;html=1;align=center;verticalAlign=middle;whiteSpace=wrap;rounded=0;fontSize=20;rotation=-90;" vertex="1" parent="1">
          <mxGeometry x="460" y="540" width="120" height="50" as="geometry" />
        </mxCell>
        <mxCell id="tfatN2HzPKrfKNg3miX_-110" style="edgeStyle=orthogonalEdgeStyle;rounded=0;orthogonalLoop=1;jettySize=auto;html=1;entryX=0.5;entryY=1;entryDx=0;entryDy=0;exitX=0.5;exitY=1;exitDx=0;exitDy=0;" edge="1" parent="1" source="tfatN2HzPKrfKNg3miX_-25" target="tfatN2HzPKrfKNg3miX_-63">
          <mxGeometry relative="1" as="geometry">
            <Array as="points">
              <mxPoint x="682" y="450" />
              <mxPoint x="1142" y="450" />
            </Array>
          </mxGeometry>
        </mxCell>
        <mxCell id="tfatN2HzPKrfKNg3miX_-111" value="Success/ Failure Status" style="text;html=1;align=center;verticalAlign=middle;whiteSpace=wrap;rounded=0;fontSize=20;" vertex="1" parent="1">
          <mxGeometry x="820.75" y="450" width="217.5" height="30" as="geometry" />
        </mxCell>
        <mxCell id="tfatN2HzPKrfKNg3miX_-112" style="edgeStyle=orthogonalEdgeStyle;rounded=0;orthogonalLoop=1;jettySize=auto;html=1;exitX=0.25;exitY=1;exitDx=0;exitDy=0;entryX=0.663;entryY=0.986;entryDx=0;entryDy=0;entryPerimeter=0;" edge="1" parent="1" source="tfatN2HzPKrfKNg3miX_-22" target="tfatN2HzPKrfKNg3miX_-52">
          <mxGeometry relative="1" as="geometry" />
        </mxCell>
        <mxCell id="tfatN2HzPKrfKNg3miX_-113" value="Success/ Failure Status" style="text;html=1;align=center;verticalAlign=middle;whiteSpace=wrap;rounded=0;fontSize=20;" vertex="1" parent="1">
          <mxGeometry x="-8.75" y="404" width="217.5" height="30" as="geometry" />
        </mxCell>
        <mxCell id="tfatN2HzPKrfKNg3miX_-114" value="" style="group" vertex="1" connectable="0" parent="1">
          <mxGeometry x="240" y="720" width="160" height="120" as="geometry" />
        </mxCell>
        <mxCell id="tfatN2HzPKrfKNg3miX_-115" value="7" style="rounded=0;whiteSpace=wrap;html=1;fontStyle=1;fontSize=20;" vertex="1" parent="tfatN2HzPKrfKNg3miX_-114">
          <mxGeometry width="160" height="40" as="geometry" />
        </mxCell>
        <mxCell id="tfatN2HzPKrfKNg3miX_-116" value="Create University" style="rounded=0;whiteSpace=wrap;html=1;fontSize=15;" vertex="1" parent="tfatN2HzPKrfKNg3miX_-114">
          <mxGeometry y="40" width="160" height="80" as="geometry" />
        </mxCell>
        <mxCell id="tfatN2HzPKrfKNg3miX_-117" value="Admin" style="rounded=0;whiteSpace=wrap;html=1;fontStyle=1;fontSize=20;" vertex="1" parent="1">
          <mxGeometry x="-160" y="770" width="120" height="40" as="geometry" />
        </mxCell>
      </root>
    </mxGraphModel>
  </diagram>
  <diagram id="P-hJolEEg-tkB4Cg-fDn" name="DFD">
    <mxGraphModel dx="2284" dy="836" grid="1" gridSize="10" guides="1" tooltips="1" connect="1" arrows="1" fold="1" page="1" pageScale="1" pageWidth="850" pageHeight="1100" math="0" shadow="0">
      <root>
        <mxCell id="0" />
        <mxCell id="1" parent="0" />
        <mxCell id="Zc5qDunCVCUeLNzqRYmw-1" value="" style="group" parent="1" vertex="1" connectable="0">
          <mxGeometry x="265" y="200" width="160" height="120" as="geometry" />
        </mxCell>
        <mxCell id="Zc5qDunCVCUeLNzqRYmw-2" value="2" style="rounded=0;whiteSpace=wrap;html=1;fontStyle=1;fontSize=20;" parent="Zc5qDunCVCUeLNzqRYmw-1" vertex="1">
          <mxGeometry width="160" height="40" as="geometry" />
        </mxCell>
        <mxCell id="Zc5qDunCVCUeLNzqRYmw-3" value="Create University AND Course Details" style="rounded=0;whiteSpace=wrap;html=1;fontSize=15;" parent="Zc5qDunCVCUeLNzqRYmw-1" vertex="1">
          <mxGeometry y="40" width="160" height="80" as="geometry" />
        </mxCell>
        <mxCell id="Ykk3p2VaWgDGj4O6pHdo-1" value="" style="group" parent="1" vertex="1" connectable="0">
          <mxGeometry x="265" y="40" width="160" height="120" as="geometry" />
        </mxCell>
        <mxCell id="Ykk3p2VaWgDGj4O6pHdo-2" value="1" style="rounded=0;whiteSpace=wrap;html=1;fontStyle=1;fontSize=20;" parent="Ykk3p2VaWgDGj4O6pHdo-1" vertex="1">
          <mxGeometry width="160" height="40" as="geometry" />
        </mxCell>
        <mxCell id="Ykk3p2VaWgDGj4O6pHdo-3" value="Authentication" style="rounded=0;whiteSpace=wrap;html=1;fontSize=15;" parent="Ykk3p2VaWgDGj4O6pHdo-1" vertex="1">
          <mxGeometry y="40" width="160" height="80" as="geometry" />
        </mxCell>
        <mxCell id="Ykk3p2VaWgDGj4O6pHdo-4" style="edgeStyle=orthogonalEdgeStyle;rounded=0;orthogonalLoop=1;jettySize=auto;html=1;entryX=0;entryY=0.25;entryDx=0;entryDy=0;exitX=1;exitY=0.25;exitDx=0;exitDy=0;" parent="1" source="Ykk3p2VaWgDGj4O6pHdo-5" target="Ykk3p2VaWgDGj4O6pHdo-3" edge="1">
          <mxGeometry relative="1" as="geometry" />
        </mxCell>
        <mxCell id="Ykk3p2VaWgDGj4O6pHdo-9" style="edgeStyle=orthogonalEdgeStyle;rounded=0;orthogonalLoop=1;jettySize=auto;html=1;exitX=0.75;exitY=1;exitDx=0;exitDy=0;entryX=0;entryY=0.25;entryDx=0;entryDy=0;" parent="1" source="Ykk3p2VaWgDGj4O6pHdo-5" target="Zc5qDunCVCUeLNzqRYmw-3" edge="1">
          <mxGeometry relative="1" as="geometry" />
        </mxCell>
        <mxCell id="jyMP4znoXPRGOoH2MA8--2" style="edgeStyle=orthogonalEdgeStyle;rounded=0;orthogonalLoop=1;jettySize=auto;html=1;entryX=0;entryY=0.5;entryDx=0;entryDy=0;exitX=0.5;exitY=1;exitDx=0;exitDy=0;" parent="1" source="Ykk3p2VaWgDGj4O6pHdo-5" target="Zc5qDunCVCUeLNzqRYmw-3" edge="1">
          <mxGeometry relative="1" as="geometry" />
        </mxCell>
        <mxCell id="Ykk3p2VaWgDGj4O6pHdo-5" value="Admin" style="rounded=0;whiteSpace=wrap;html=1;fontStyle=1;fontSize=20;" parent="1" vertex="1">
          <mxGeometry x="-60" y="90" width="120" height="40" as="geometry" />
        </mxCell>
        <mxCell id="Ykk3p2VaWgDGj4O6pHdo-6" value="Admin Credentials" style="text;html=1;align=center;verticalAlign=middle;whiteSpace=wrap;rounded=0;fontSize=20;" parent="1" vertex="1">
          <mxGeometry x="80" y="64" width="170" height="30" as="geometry" />
        </mxCell>
        <mxCell id="Ykk3p2VaWgDGj4O6pHdo-7" style="edgeStyle=orthogonalEdgeStyle;rounded=0;orthogonalLoop=1;jettySize=auto;html=1;exitX=0;exitY=0.5;exitDx=0;exitDy=0;entryX=1;entryY=0.75;entryDx=0;entryDy=0;" parent="1" source="Ykk3p2VaWgDGj4O6pHdo-3" target="Ykk3p2VaWgDGj4O6pHdo-5" edge="1">
          <mxGeometry relative="1" as="geometry" />
        </mxCell>
        <mxCell id="Ykk3p2VaWgDGj4O6pHdo-8" value="Login Status" style="text;html=1;align=center;verticalAlign=middle;whiteSpace=wrap;rounded=0;fontSize=20;" parent="1" vertex="1">
          <mxGeometry x="80" y="130" width="170" height="30" as="geometry" />
        </mxCell>
        <mxCell id="jyMP4znoXPRGOoH2MA8--1" value="University Details" style="text;html=1;align=center;verticalAlign=middle;whiteSpace=wrap;rounded=0;fontSize=20;" parent="1" vertex="1">
          <mxGeometry x="57" y="225" width="180" height="30" as="geometry" />
        </mxCell>
        <mxCell id="jyMP4znoXPRGOoH2MA8--3" value="Course Details" style="text;html=1;align=center;verticalAlign=middle;whiteSpace=wrap;rounded=0;fontSize=20;" parent="1" vertex="1">
          <mxGeometry x="57" y="284" width="180" height="30" as="geometry" />
        </mxCell>
        <mxCell id="jyMP4znoXPRGOoH2MA8--4" style="edgeStyle=orthogonalEdgeStyle;rounded=0;orthogonalLoop=1;jettySize=auto;html=1;exitX=0.25;exitY=1;exitDx=0;exitDy=0;entryX=0.25;entryY=1;entryDx=0;entryDy=0;" parent="1" source="Zc5qDunCVCUeLNzqRYmw-3" target="Ykk3p2VaWgDGj4O6pHdo-5" edge="1">
          <mxGeometry relative="1" as="geometry" />
        </mxCell>
        <mxCell id="ZbCTy2TgZL4Y3mOU48MF-1" value="Success/ Failure Status" style="text;html=1;align=center;verticalAlign=middle;whiteSpace=wrap;rounded=0;fontSize=20;" parent="1" vertex="1">
          <mxGeometry x="38.25" y="350" width="217.5" height="30" as="geometry" />
        </mxCell>
        <mxCell id="nJFgzmuY9JW6oHUwYLd1-1" value="" style="group" parent="1" vertex="1" connectable="0">
          <mxGeometry x="265" y="400" width="160" height="120" as="geometry" />
        </mxCell>
        <mxCell id="nJFgzmuY9JW6oHUwYLd1-2" value="3" style="rounded=0;whiteSpace=wrap;html=1;fontStyle=1;fontSize=20;" parent="nJFgzmuY9JW6oHUwYLd1-1" vertex="1">
          <mxGeometry width="160" height="40" as="geometry" />
        </mxCell>
        <mxCell id="nJFgzmuY9JW6oHUwYLd1-3" value="View Universities and Courses" style="rounded=0;whiteSpace=wrap;html=1;fontSize=15;" parent="nJFgzmuY9JW6oHUwYLd1-1" vertex="1">
          <mxGeometry y="40" width="160" height="80" as="geometry" />
        </mxCell>
        <mxCell id="nJFgzmuY9JW6oHUwYLd1-4" value="Admin" style="rounded=0;whiteSpace=wrap;html=1;fontStyle=1;fontSize=20;" parent="1" vertex="1">
          <mxGeometry x="-40" y="450" width="120" height="40" as="geometry" />
        </mxCell>
        <mxCell id="nJFgzmuY9JW6oHUwYLd1-5" style="edgeStyle=orthogonalEdgeStyle;rounded=0;orthogonalLoop=1;jettySize=auto;html=1;exitX=0;exitY=0.25;exitDx=0;exitDy=0;entryX=1;entryY=0.25;entryDx=0;entryDy=0;" parent="1" source="nJFgzmuY9JW6oHUwYLd1-3" target="nJFgzmuY9JW6oHUwYLd1-4" edge="1">
          <mxGeometry relative="1" as="geometry" />
        </mxCell>
        <mxCell id="nJFgzmuY9JW6oHUwYLd1-6" value="University Details" style="text;html=1;align=center;verticalAlign=middle;whiteSpace=wrap;rounded=0;fontSize=20;" parent="1" vertex="1">
          <mxGeometry x="85" y="420" width="180" height="30" as="geometry" />
        </mxCell>
        <mxCell id="nJFgzmuY9JW6oHUwYLd1-7" style="edgeStyle=orthogonalEdgeStyle;rounded=0;orthogonalLoop=1;jettySize=auto;html=1;exitX=0;exitY=0.5;exitDx=0;exitDy=0;entryX=1;entryY=0.75;entryDx=0;entryDy=0;" parent="1" source="nJFgzmuY9JW6oHUwYLd1-3" target="nJFgzmuY9JW6oHUwYLd1-4" edge="1">
          <mxGeometry relative="1" as="geometry" />
        </mxCell>
        <mxCell id="nJFgzmuY9JW6oHUwYLd1-8" value="Course Details" style="text;html=1;align=center;verticalAlign=middle;whiteSpace=wrap;rounded=0;fontSize=20;" parent="1" vertex="1">
          <mxGeometry x="80" y="490" width="180" height="30" as="geometry" />
        </mxCell>
        <mxCell id="nJFgzmuY9JW6oHUwYLd1-9" value="Public" style="rounded=0;whiteSpace=wrap;html=1;fontStyle=1;fontSize=20;" parent="1" vertex="1">
          <mxGeometry x="-40" y="560" width="120" height="40" as="geometry" />
        </mxCell>
        <mxCell id="nJFgzmuY9JW6oHUwYLd1-10" style="edgeStyle=orthogonalEdgeStyle;rounded=0;orthogonalLoop=1;jettySize=auto;html=1;exitX=0.25;exitY=1;exitDx=0;exitDy=0;entryX=1;entryY=0.25;entryDx=0;entryDy=0;" parent="1" source="nJFgzmuY9JW6oHUwYLd1-3" target="nJFgzmuY9JW6oHUwYLd1-9" edge="1">
          <mxGeometry relative="1" as="geometry" />
        </mxCell>
        <mxCell id="nJFgzmuY9JW6oHUwYLd1-11" style="edgeStyle=orthogonalEdgeStyle;rounded=0;orthogonalLoop=1;jettySize=auto;html=1;entryX=1;entryY=0.75;entryDx=0;entryDy=0;" parent="1" source="nJFgzmuY9JW6oHUwYLd1-3" target="nJFgzmuY9JW6oHUwYLd1-9" edge="1">
          <mxGeometry relative="1" as="geometry">
            <Array as="points">
              <mxPoint x="320" y="590" />
            </Array>
          </mxGeometry>
        </mxCell>
        <mxCell id="nJFgzmuY9JW6oHUwYLd1-12" value="University Details" style="text;html=1;align=center;verticalAlign=middle;whiteSpace=wrap;rounded=0;fontSize=20;" parent="1" vertex="1">
          <mxGeometry x="110" y="535" width="180" height="30" as="geometry" />
        </mxCell>
        <mxCell id="nJFgzmuY9JW6oHUwYLd1-13" value="Course Details" style="text;html=1;align=center;verticalAlign=middle;whiteSpace=wrap;rounded=0;fontSize=20;" parent="1" vertex="1">
          <mxGeometry x="110" y="590" width="180" height="30" as="geometry" />
        </mxCell>
        <mxCell id="QnUeg2Ofp1UdOv98hmXr-1" value="" style="group" parent="1" vertex="1" connectable="0">
          <mxGeometry x="268" y="650" width="160" height="120" as="geometry" />
        </mxCell>
        <mxCell id="QnUeg2Ofp1UdOv98hmXr-2" value="4" style="rounded=0;whiteSpace=wrap;html=1;fontStyle=1;fontSize=20;" parent="QnUeg2Ofp1UdOv98hmXr-1" vertex="1">
          <mxGeometry width="160" height="40" as="geometry" />
        </mxCell>
        <mxCell id="QnUeg2Ofp1UdOv98hmXr-3" value="Edit Courses" style="rounded=0;whiteSpace=wrap;html=1;fontSize=15;" parent="QnUeg2Ofp1UdOv98hmXr-1" vertex="1">
          <mxGeometry y="40" width="160" height="80" as="geometry" />
        </mxCell>
        <mxCell id="0NZhfOIwgLGfbR35m098-1" value="" style="group" parent="1" vertex="1" connectable="0">
          <mxGeometry x="639" y="80" width="160" height="40" as="geometry" />
        </mxCell>
        <mxCell id="0NZhfOIwgLGfbR35m098-2" value="D1" style="whiteSpace=wrap;html=1;aspect=fixed;fontStyle=1;fontSize=20;" parent="0NZhfOIwgLGfbR35m098-1" vertex="1">
          <mxGeometry width="40" height="40" as="geometry" />
        </mxCell>
        <mxCell id="0NZhfOIwgLGfbR35m098-3" value="Account" style="rounded=0;whiteSpace=wrap;html=1;fontStyle=0;fontSize=20;" parent="0NZhfOIwgLGfbR35m098-1" vertex="1">
          <mxGeometry x="40" width="120" height="40" as="geometry" />
        </mxCell>
        <mxCell id="0NZhfOIwgLGfbR35m098-4" value="" style="group" parent="1" vertex="1" connectable="0">
          <mxGeometry x="639" y="240" width="160" height="40" as="geometry" />
        </mxCell>
        <mxCell id="0NZhfOIwgLGfbR35m098-5" value="D2" style="whiteSpace=wrap;html=1;aspect=fixed;fontStyle=1;fontSize=20;" parent="0NZhfOIwgLGfbR35m098-4" vertex="1">
          <mxGeometry width="40" height="40" as="geometry" />
        </mxCell>
        <mxCell id="0NZhfOIwgLGfbR35m098-6" value="University" style="rounded=0;whiteSpace=wrap;html=1;fontStyle=0;fontSize=20;" parent="0NZhfOIwgLGfbR35m098-4" vertex="1">
          <mxGeometry x="40" width="120" height="40" as="geometry" />
        </mxCell>
        <mxCell id="0NZhfOIwgLGfbR35m098-8" value="" style="group" parent="1" vertex="1" connectable="0">
          <mxGeometry x="639" y="360" width="160" height="40" as="geometry" />
        </mxCell>
        <mxCell id="0NZhfOIwgLGfbR35m098-9" value="D3" style="whiteSpace=wrap;html=1;aspect=fixed;fontStyle=1;fontSize=20;" parent="0NZhfOIwgLGfbR35m098-8" vertex="1">
          <mxGeometry width="40" height="40" as="geometry" />
        </mxCell>
        <mxCell id="0NZhfOIwgLGfbR35m098-10" value="Course" style="rounded=0;whiteSpace=wrap;html=1;fontStyle=0;fontSize=20;" parent="0NZhfOIwgLGfbR35m098-8" vertex="1">
          <mxGeometry x="40" width="120" height="40" as="geometry" />
        </mxCell>
        <mxCell id="0NZhfOIwgLGfbR35m098-12" value="" style="group" parent="1" vertex="1" connectable="0">
          <mxGeometry x="560" y="480" width="220" height="40" as="geometry" />
        </mxCell>
        <mxCell id="0NZhfOIwgLGfbR35m098-13" value="D4" style="whiteSpace=wrap;html=1;aspect=fixed;fontStyle=1;fontSize=20;" parent="0NZhfOIwgLGfbR35m098-12" vertex="1">
          <mxGeometry width="40" height="40" as="geometry" />
        </mxCell>
        <mxCell id="0NZhfOIwgLGfbR35m098-14" value="UniversityCourse" style="rounded=0;whiteSpace=wrap;html=1;fontStyle=0;fontSize=20;" parent="0NZhfOIwgLGfbR35m098-12" vertex="1">
          <mxGeometry x="40" width="180" height="40" as="geometry" />
        </mxCell>
        <mxCell id="sk76i_YseCqXDfi3Pg53-14" style="edgeStyle=orthogonalEdgeStyle;rounded=0;orthogonalLoop=1;jettySize=auto;html=1;exitX=1;exitY=0.25;exitDx=0;exitDy=0;entryX=0;entryY=0.25;entryDx=0;entryDy=0;" parent="1" source="0NZhfOIwgLGfbR35m098-15" target="QnUeg2Ofp1UdOv98hmXr-3" edge="1">
          <mxGeometry relative="1" as="geometry" />
        </mxCell>
        <mxCell id="sk76i_YseCqXDfi3Pg53-16" style="edgeStyle=orthogonalEdgeStyle;rounded=0;orthogonalLoop=1;jettySize=auto;html=1;exitX=0.75;exitY=1;exitDx=0;exitDy=0;entryX=0.5;entryY=1;entryDx=0;entryDy=0;" parent="1" source="0NZhfOIwgLGfbR35m098-15" target="QnUeg2Ofp1UdOv98hmXr-3" edge="1">
          <mxGeometry relative="1" as="geometry" />
        </mxCell>
        <mxCell id="0NZhfOIwgLGfbR35m098-15" value="Admin" style="rounded=0;whiteSpace=wrap;html=1;fontStyle=1;fontSize=20;" parent="1" vertex="1">
          <mxGeometry x="-35" y="700" width="120" height="40" as="geometry" />
        </mxCell>
        <mxCell id="0NZhfOIwgLGfbR35m098-18" value="Course Details" style="text;html=1;align=center;verticalAlign=middle;whiteSpace=wrap;rounded=0;fontSize=20;" parent="1" vertex="1">
          <mxGeometry x="92" y="674" width="168" height="30" as="geometry" />
        </mxCell>
        <mxCell id="0NZhfOIwgLGfbR35m098-23" value="Success/ Failure Status" style="text;html=1;align=center;verticalAlign=middle;whiteSpace=wrap;rounded=0;fontSize=20;" parent="1" vertex="1">
          <mxGeometry x="92" y="792" width="230" height="30" as="geometry" />
        </mxCell>
        <mxCell id="0NZhfOIwgLGfbR35m098-25" value="Course Details" style="text;html=1;align=center;verticalAlign=middle;whiteSpace=wrap;rounded=0;fontSize=20;" parent="1" vertex="1">
          <mxGeometry x="92" y="735" width="168" height="30" as="geometry" />
        </mxCell>
        <mxCell id="sk76i_YseCqXDfi3Pg53-15" style="edgeStyle=orthogonalEdgeStyle;rounded=0;orthogonalLoop=1;jettySize=auto;html=1;exitX=0;exitY=0.5;exitDx=0;exitDy=0;entryX=1;entryY=0.75;entryDx=0;entryDy=0;" parent="1" source="QnUeg2Ofp1UdOv98hmXr-3" target="0NZhfOIwgLGfbR35m098-15" edge="1">
          <mxGeometry relative="1" as="geometry" />
        </mxCell>
        <mxCell id="sk76i_YseCqXDfi3Pg53-18" value="" style="group" parent="1" vertex="1" connectable="0">
          <mxGeometry x="265" y="840" width="160" height="120" as="geometry" />
        </mxCell>
        <mxCell id="sk76i_YseCqXDfi3Pg53-19" value="5" style="rounded=0;whiteSpace=wrap;html=1;fontStyle=1;fontSize=20;" parent="sk76i_YseCqXDfi3Pg53-18" vertex="1">
          <mxGeometry width="160" height="40" as="geometry" />
        </mxCell>
        <mxCell id="sk76i_YseCqXDfi3Pg53-20" value="Edit Universities" style="rounded=0;whiteSpace=wrap;html=1;fontSize=15;" parent="sk76i_YseCqXDfi3Pg53-18" vertex="1">
          <mxGeometry y="40" width="160" height="80" as="geometry" />
        </mxCell>
        <mxCell id="sk76i_YseCqXDfi3Pg53-21" style="edgeStyle=orthogonalEdgeStyle;rounded=0;orthogonalLoop=1;jettySize=auto;html=1;exitX=1;exitY=0.25;exitDx=0;exitDy=0;entryX=0;entryY=0.25;entryDx=0;entryDy=0;" parent="1" source="sk76i_YseCqXDfi3Pg53-23" target="sk76i_YseCqXDfi3Pg53-20" edge="1">
          <mxGeometry relative="1" as="geometry" />
        </mxCell>
        <mxCell id="sk76i_YseCqXDfi3Pg53-22" style="edgeStyle=orthogonalEdgeStyle;rounded=0;orthogonalLoop=1;jettySize=auto;html=1;exitX=0.75;exitY=1;exitDx=0;exitDy=0;entryX=0.5;entryY=1;entryDx=0;entryDy=0;" parent="1" source="sk76i_YseCqXDfi3Pg53-23" target="sk76i_YseCqXDfi3Pg53-20" edge="1">
          <mxGeometry relative="1" as="geometry" />
        </mxCell>
        <mxCell id="sk76i_YseCqXDfi3Pg53-23" value="Admin" style="rounded=0;whiteSpace=wrap;html=1;fontStyle=1;fontSize=20;" parent="1" vertex="1">
          <mxGeometry x="-38" y="890" width="120" height="40" as="geometry" />
        </mxCell>
        <mxCell id="sk76i_YseCqXDfi3Pg53-24" value="University Details" style="text;html=1;align=center;verticalAlign=middle;whiteSpace=wrap;rounded=0;fontSize=20;" parent="1" vertex="1">
          <mxGeometry x="89" y="864" width="168" height="30" as="geometry" />
        </mxCell>
        <mxCell id="sk76i_YseCqXDfi3Pg53-25" value="Success/ Failure Status" style="text;html=1;align=center;verticalAlign=middle;whiteSpace=wrap;rounded=0;fontSize=20;" parent="1" vertex="1">
          <mxGeometry x="89" y="982" width="230" height="30" as="geometry" />
        </mxCell>
        <mxCell id="sk76i_YseCqXDfi3Pg53-26" value="University Details" style="text;html=1;align=center;verticalAlign=middle;whiteSpace=wrap;rounded=0;fontSize=20;" parent="1" vertex="1">
          <mxGeometry x="89" y="925" width="168" height="30" as="geometry" />
        </mxCell>
        <mxCell id="sk76i_YseCqXDfi3Pg53-27" style="edgeStyle=orthogonalEdgeStyle;rounded=0;orthogonalLoop=1;jettySize=auto;html=1;exitX=0;exitY=0.5;exitDx=0;exitDy=0;entryX=1;entryY=0.75;entryDx=0;entryDy=0;" parent="1" source="sk76i_YseCqXDfi3Pg53-20" target="sk76i_YseCqXDfi3Pg53-23" edge="1">
          <mxGeometry relative="1" as="geometry" />
        </mxCell>
        <mxCell id="aaC2QwU90YLQCun5rk-k-1" value="" style="group" parent="1" vertex="1" connectable="0">
          <mxGeometry x="560" y="840" width="160" height="120" as="geometry" />
        </mxCell>
        <mxCell id="aaC2QwU90YLQCun5rk-k-2" value="6" style="rounded=0;whiteSpace=wrap;html=1;fontStyle=1;fontSize=20;" parent="aaC2QwU90YLQCun5rk-k-1" vertex="1">
          <mxGeometry width="160" height="40" as="geometry" />
        </mxCell>
        <mxCell id="aaC2QwU90YLQCun5rk-k-3" value="Delete Universities and Courses" style="rounded=0;whiteSpace=wrap;html=1;fontSize=15;" parent="aaC2QwU90YLQCun5rk-k-1" vertex="1">
          <mxGeometry y="40" width="160" height="80" as="geometry" />
        </mxCell>
        <mxCell id="aaC2QwU90YLQCun5rk-k-7" style="edgeStyle=orthogonalEdgeStyle;rounded=0;orthogonalLoop=1;jettySize=auto;html=1;exitX=0.25;exitY=1;exitDx=0;exitDy=0;entryX=0.5;entryY=1;entryDx=0;entryDy=0;" parent="1" source="aaC2QwU90YLQCun5rk-k-3" target="sk76i_YseCqXDfi3Pg53-23" edge="1">
          <mxGeometry relative="1" as="geometry">
            <Array as="points">
              <mxPoint x="600" y="1020" />
              <mxPoint x="22" y="1020" />
            </Array>
          </mxGeometry>
        </mxCell>
        <mxCell id="aaC2QwU90YLQCun5rk-k-8" value="University Details" style="text;html=1;align=center;verticalAlign=middle;whiteSpace=wrap;rounded=0;fontSize=20;" parent="1" vertex="1">
          <mxGeometry x="420" y="982" width="168" height="30" as="geometry" />
        </mxCell>
        <mxCell id="aaC2QwU90YLQCun5rk-k-9" style="edgeStyle=orthogonalEdgeStyle;rounded=0;orthogonalLoop=1;jettySize=auto;html=1;entryX=0.25;entryY=1;entryDx=0;entryDy=0;" parent="1" source="aaC2QwU90YLQCun5rk-k-3" target="sk76i_YseCqXDfi3Pg53-23" edge="1">
          <mxGeometry relative="1" as="geometry">
            <Array as="points">
              <mxPoint x="640" y="1060" />
              <mxPoint x="-8" y="1060" />
            </Array>
          </mxGeometry>
        </mxCell>
        <mxCell id="aaC2QwU90YLQCun5rk-k-10" value="Course Details" style="text;html=1;align=center;verticalAlign=middle;whiteSpace=wrap;rounded=0;fontSize=20;" parent="1" vertex="1">
          <mxGeometry x="420" y="1030" width="168" height="30" as="geometry" />
        </mxCell>
        <mxCell id="aaC2QwU90YLQCun5rk-k-12" style="edgeStyle=orthogonalEdgeStyle;rounded=0;orthogonalLoop=1;jettySize=auto;html=1;exitX=0.75;exitY=1;exitDx=0;exitDy=0;entryX=0;entryY=0.75;entryDx=0;entryDy=0;" parent="1" source="aaC2QwU90YLQCun5rk-k-3" target="sk76i_YseCqXDfi3Pg53-23" edge="1">
          <mxGeometry relative="1" as="geometry">
            <Array as="points">
              <mxPoint x="680" y="1080" />
              <mxPoint x="-58" y="1080" />
              <mxPoint x="-58" y="920" />
            </Array>
          </mxGeometry>
        </mxCell>
        <mxCell id="aaC2QwU90YLQCun5rk-k-13" value="Success&lt;div&gt;/ Failure&amp;nbsp;&lt;div&gt;Status&lt;/div&gt;&lt;/div&gt;" style="text;html=1;align=center;verticalAlign=middle;whiteSpace=wrap;rounded=0;fontSize=20;rotation=-90;" parent="1" vertex="1">
          <mxGeometry x="664" y="983" width="110" height="73" as="geometry" />
        </mxCell>
        <mxCell id="aaC2QwU90YLQCun5rk-k-14" style="edgeStyle=orthogonalEdgeStyle;rounded=0;orthogonalLoop=1;jettySize=auto;html=1;exitX=0;exitY=0.5;exitDx=0;exitDy=0;entryX=1;entryY=0.25;entryDx=0;entryDy=0;" parent="1" source="0NZhfOIwgLGfbR35m098-2" target="Ykk3p2VaWgDGj4O6pHdo-3" edge="1">
          <mxGeometry relative="1" as="geometry" />
        </mxCell>
        <mxCell id="aaC2QwU90YLQCun5rk-k-15" value="Admin Credentials" style="text;html=1;align=center;verticalAlign=middle;whiteSpace=wrap;rounded=0;fontSize=20;" parent="1" vertex="1">
          <mxGeometry x="460" y="64" width="170" height="30" as="geometry" />
        </mxCell>
        <mxCell id="aaC2QwU90YLQCun5rk-k-18" style="edgeStyle=orthogonalEdgeStyle;rounded=0;orthogonalLoop=1;jettySize=auto;html=1;exitX=1;exitY=0.25;exitDx=0;exitDy=0;entryX=0;entryY=0.5;entryDx=0;entryDy=0;" parent="1" source="Zc5qDunCVCUeLNzqRYmw-3" target="0NZhfOIwgLGfbR35m098-5" edge="1">
          <mxGeometry relative="1" as="geometry" />
        </mxCell>
        <mxCell id="aaC2QwU90YLQCun5rk-k-20" value="Universities Details" style="text;html=1;align=center;verticalAlign=middle;whiteSpace=wrap;rounded=0;fontSize=20;" parent="1" vertex="1">
          <mxGeometry x="440" y="225" width="180" height="30" as="geometry" />
        </mxCell>
        <mxCell id="aaC2QwU90YLQCun5rk-k-21" value="Course Details" style="text;html=1;align=center;verticalAlign=middle;whiteSpace=wrap;rounded=0;fontSize=20;rotation=-90;" parent="1" vertex="1">
          <mxGeometry x="420" y="420" width="180" height="30" as="geometry" />
        </mxCell>
        <mxCell id="aaC2QwU90YLQCun5rk-k-22" style="edgeStyle=orthogonalEdgeStyle;rounded=0;orthogonalLoop=1;jettySize=auto;html=1;exitX=1;exitY=0.25;exitDx=0;exitDy=0;entryX=1;entryY=0.25;entryDx=0;entryDy=0;" parent="1" source="sk76i_YseCqXDfi3Pg53-20" target="0NZhfOIwgLGfbR35m098-6" edge="1">
          <mxGeometry relative="1" as="geometry">
            <Array as="points">
              <mxPoint x="490" y="900" />
              <mxPoint x="490" y="820" />
              <mxPoint x="830" y="820" />
              <mxPoint x="830" y="250" />
            </Array>
          </mxGeometry>
        </mxCell>
        <mxCell id="aaC2QwU90YLQCun5rk-k-23" value="University Details" style="text;html=1;align=center;verticalAlign=middle;whiteSpace=wrap;rounded=0;fontSize=20;rotation=-90;" parent="1" vertex="1">
          <mxGeometry x="720" y="630" width="168" height="30" as="geometry" />
        </mxCell>
      </root>
    </mxGraphModel>
  </diagram>
  <diagram id="3oOC_Vn__5IwaNB8zgb0" name="DFD">
    <mxGraphModel dx="2284" dy="1936" grid="1" gridSize="10" guides="1" tooltips="1" connect="1" arrows="1" fold="1" page="1" pageScale="1" pageWidth="850" pageHeight="1100" math="0" shadow="0">
      <root>
        <mxCell id="0" />
        <mxCell id="1" parent="0" />
        <mxCell id="ukn1xS1mOlt8Ee56fto0-1" value="" style="group" vertex="1" connectable="0" parent="1">
          <mxGeometry x="720" y="160" width="160" height="120" as="geometry" />
        </mxCell>
        <mxCell id="ukn1xS1mOlt8Ee56fto0-2" value="2" style="rounded=0;whiteSpace=wrap;html=1;fontStyle=1;fontSize=20;" vertex="1" parent="ukn1xS1mOlt8Ee56fto0-1">
          <mxGeometry width="160" height="40" as="geometry" />
        </mxCell>
        <mxCell id="ukn1xS1mOlt8Ee56fto0-3" value="Create University AND Course Details" style="rounded=0;whiteSpace=wrap;html=1;fontSize=15;" vertex="1" parent="ukn1xS1mOlt8Ee56fto0-1">
          <mxGeometry y="40" width="160" height="80" as="geometry" />
        </mxCell>
        <mxCell id="ukn1xS1mOlt8Ee56fto0-4" value="" style="group" vertex="1" connectable="0" parent="1">
          <mxGeometry x="40" y="160" width="160" height="120" as="geometry" />
        </mxCell>
        <mxCell id="ukn1xS1mOlt8Ee56fto0-5" value="1" style="rounded=0;whiteSpace=wrap;html=1;fontStyle=1;fontSize=20;" vertex="1" parent="ukn1xS1mOlt8Ee56fto0-4">
          <mxGeometry width="160" height="40" as="geometry" />
        </mxCell>
        <mxCell id="ukn1xS1mOlt8Ee56fto0-6" value="Authentication" style="rounded=0;whiteSpace=wrap;html=1;fontSize=15;" vertex="1" parent="ukn1xS1mOlt8Ee56fto0-4">
          <mxGeometry y="40" width="160" height="80" as="geometry" />
        </mxCell>
        <mxCell id="dC-tV4f93UpBQwY4O5xS-1" value="" style="group" vertex="1" connectable="0" parent="1">
          <mxGeometry x="720" y="360" width="160" height="120" as="geometry" />
        </mxCell>
        <mxCell id="dC-tV4f93UpBQwY4O5xS-2" value="3" style="rounded=0;whiteSpace=wrap;html=1;fontStyle=1;fontSize=20;" vertex="1" parent="dC-tV4f93UpBQwY4O5xS-1">
          <mxGeometry width="160" height="40" as="geometry" />
        </mxCell>
        <mxCell id="dC-tV4f93UpBQwY4O5xS-3" value="Edit Courses" style="rounded=0;whiteSpace=wrap;html=1;fontSize=15;" vertex="1" parent="dC-tV4f93UpBQwY4O5xS-1">
          <mxGeometry y="40" width="160" height="80" as="geometry" />
        </mxCell>
        <mxCell id="3s6k_-YkVU42opj8ve_b-1" value="" style="group" vertex="1" connectable="0" parent="1">
          <mxGeometry x="40" y="360" width="160" height="120" as="geometry" />
        </mxCell>
        <mxCell id="3s6k_-YkVU42opj8ve_b-2" value="4" style="rounded=0;whiteSpace=wrap;html=1;fontStyle=1;fontSize=20;" vertex="1" parent="3s6k_-YkVU42opj8ve_b-1">
          <mxGeometry width="160" height="40" as="geometry" />
        </mxCell>
        <mxCell id="3s6k_-YkVU42opj8ve_b-3" value="Edit Universities" style="rounded=0;whiteSpace=wrap;html=1;fontSize=15;" vertex="1" parent="3s6k_-YkVU42opj8ve_b-1">
          <mxGeometry y="40" width="160" height="80" as="geometry" />
        </mxCell>
        <mxCell id="AWDsFJmBMONSogt2A3TP-1" value="" style="group" vertex="1" connectable="0" parent="1">
          <mxGeometry x="720" y="560" width="160" height="120" as="geometry" />
        </mxCell>
        <mxCell id="AWDsFJmBMONSogt2A3TP-2" value="6" style="rounded=0;whiteSpace=wrap;html=1;fontStyle=1;fontSize=20;" vertex="1" parent="AWDsFJmBMONSogt2A3TP-1">
          <mxGeometry width="160" height="40" as="geometry" />
        </mxCell>
        <mxCell id="AWDsFJmBMONSogt2A3TP-3" value="Delete Universities and Courses" style="rounded=0;whiteSpace=wrap;html=1;fontSize=15;" vertex="1" parent="AWDsFJmBMONSogt2A3TP-1">
          <mxGeometry y="40" width="160" height="80" as="geometry" />
        </mxCell>
        <mxCell id="uCUyjxyBXCpgmVympSEb-2" style="edgeStyle=orthogonalEdgeStyle;rounded=0;orthogonalLoop=1;jettySize=auto;html=1;exitX=0;exitY=0.25;exitDx=0;exitDy=0;entryX=1;entryY=0.25;entryDx=0;entryDy=0;" edge="1" parent="1" source="uCUyjxyBXCpgmVympSEb-1" target="ukn1xS1mOlt8Ee56fto0-6">
          <mxGeometry relative="1" as="geometry" />
        </mxCell>
        <mxCell id="30juavsXyviftLMNBFXy-2" style="edgeStyle=orthogonalEdgeStyle;rounded=0;orthogonalLoop=1;jettySize=auto;html=1;exitX=1;exitY=0.25;exitDx=0;exitDy=0;entryX=0;entryY=0.25;entryDx=0;entryDy=0;" edge="1" parent="1" source="uCUyjxyBXCpgmVympSEb-1" target="ukn1xS1mOlt8Ee56fto0-3">
          <mxGeometry relative="1" as="geometry" />
        </mxCell>
        <mxCell id="y94qloH-4m3f5zpOad46-3" style="edgeStyle=orthogonalEdgeStyle;rounded=0;orthogonalLoop=1;jettySize=auto;html=1;entryX=0;entryY=0.5;entryDx=0;entryDy=0;exitX=1;exitY=0.75;exitDx=0;exitDy=0;" edge="1" parent="1" source="uCUyjxyBXCpgmVympSEb-1" target="ukn1xS1mOlt8Ee56fto0-3">
          <mxGeometry relative="1" as="geometry" />
        </mxCell>
        <mxCell id="uCUyjxyBXCpgmVympSEb-1" value="Admin" style="rounded=0;whiteSpace=wrap;html=1;fontStyle=1;fontSize=20;" vertex="1" parent="1">
          <mxGeometry x="400" y="210" width="120" height="40" as="geometry" />
        </mxCell>
        <mxCell id="uCUyjxyBXCpgmVympSEb-3" style="edgeStyle=orthogonalEdgeStyle;rounded=0;orthogonalLoop=1;jettySize=auto;html=1;entryX=0;entryY=0.75;entryDx=0;entryDy=0;" edge="1" parent="1" source="ukn1xS1mOlt8Ee56fto0-6" target="uCUyjxyBXCpgmVympSEb-1">
          <mxGeometry relative="1" as="geometry" />
        </mxCell>
        <mxCell id="2_ACaYwhCONBvGSczpra-1" value="Admin Credentials" style="text;html=1;align=center;verticalAlign=middle;whiteSpace=wrap;rounded=0;fontSize=20;" vertex="1" parent="1">
          <mxGeometry x="220" y="190" width="170" height="30" as="geometry" />
        </mxCell>
        <mxCell id="30juavsXyviftLMNBFXy-1" value="Login Status" style="text;html=1;align=center;verticalAlign=middle;whiteSpace=wrap;rounded=0;fontSize=20;" vertex="1" parent="1">
          <mxGeometry x="230" y="240" width="140" height="30" as="geometry" />
        </mxCell>
        <mxCell id="y94qloH-4m3f5zpOad46-1" value="Course Details" style="text;html=1;align=center;verticalAlign=middle;whiteSpace=wrap;rounded=0;fontSize=20;" vertex="1" parent="1">
          <mxGeometry x="540" y="190" width="160" height="30" as="geometry" />
        </mxCell>
        <mxCell id="y94qloH-4m3f5zpOad46-2" value="University Details" style="text;html=1;align=center;verticalAlign=middle;whiteSpace=wrap;rounded=0;fontSize=20;" vertex="1" parent="1">
          <mxGeometry x="540" y="240" width="160" height="30" as="geometry" />
        </mxCell>
        <mxCell id="y94qloH-4m3f5zpOad46-4" style="edgeStyle=orthogonalEdgeStyle;rounded=0;orthogonalLoop=1;jettySize=auto;html=1;exitX=0.25;exitY=0;exitDx=0;exitDy=0;entryX=0.75;entryY=0;entryDx=0;entryDy=0;" edge="1" parent="1" source="ukn1xS1mOlt8Ee56fto0-2" target="uCUyjxyBXCpgmVympSEb-1">
          <mxGeometry relative="1" as="geometry" />
        </mxCell>
        <mxCell id="RZpJEG1By-xURKVi8tbB-1" value="Success/ Failure Status" style="text;html=1;align=center;verticalAlign=middle;whiteSpace=wrap;rounded=0;fontSize=20;" vertex="1" parent="1">
          <mxGeometry x="511.25" y="110" width="217.5" height="30" as="geometry" />
        </mxCell>
        <mxCell id="RZpJEG1By-xURKVi8tbB-3" style="edgeStyle=orthogonalEdgeStyle;rounded=0;orthogonalLoop=1;jettySize=auto;html=1;exitX=0;exitY=0.25;exitDx=0;exitDy=0;entryX=1;entryY=0.25;entryDx=0;entryDy=0;" edge="1" parent="1" source="RZpJEG1By-xURKVi8tbB-2" target="3s6k_-YkVU42opj8ve_b-3">
          <mxGeometry relative="1" as="geometry" />
        </mxCell>
        <mxCell id="RZpJEG1By-xURKVi8tbB-7" style="edgeStyle=orthogonalEdgeStyle;rounded=0;orthogonalLoop=1;jettySize=auto;html=1;exitX=1;exitY=0.25;exitDx=0;exitDy=0;entryX=0;entryY=0.25;entryDx=0;entryDy=0;" edge="1" parent="1" source="RZpJEG1By-xURKVi8tbB-2" target="dC-tV4f93UpBQwY4O5xS-3">
          <mxGeometry relative="1" as="geometry" />
        </mxCell>
        <mxCell id="RZpJEG1By-xURKVi8tbB-2" value="Admin" style="rounded=0;whiteSpace=wrap;html=1;fontStyle=1;fontSize=20;" vertex="1" parent="1">
          <mxGeometry x="400" y="410" width="120" height="40" as="geometry" />
        </mxCell>
        <mxCell id="RZpJEG1By-xURKVi8tbB-4" style="edgeStyle=orthogonalEdgeStyle;rounded=0;orthogonalLoop=1;jettySize=auto;html=1;entryX=0;entryY=0.75;entryDx=0;entryDy=0;" edge="1" parent="1" source="3s6k_-YkVU42opj8ve_b-3" target="RZpJEG1By-xURKVi8tbB-2">
          <mxGeometry relative="1" as="geometry" />
        </mxCell>
        <mxCell id="RZpJEG1By-xURKVi8tbB-5" value="University Details" style="text;html=1;align=center;verticalAlign=middle;whiteSpace=wrap;rounded=0;fontSize=20;" vertex="1" parent="1">
          <mxGeometry x="220" y="390" width="160" height="30" as="geometry" />
        </mxCell>
        <mxCell id="RZpJEG1By-xURKVi8tbB-6" value="Success/ Failure&amp;nbsp;&lt;div&gt;Status&lt;/div&gt;" style="text;html=1;align=center;verticalAlign=middle;whiteSpace=wrap;rounded=0;fontSize=20;" vertex="1" parent="1">
          <mxGeometry x="216.25" y="440" width="167.5" height="60" as="geometry" />
        </mxCell>
        <mxCell id="RZpJEG1By-xURKVi8tbB-8" value="Course Details" style="text;html=1;align=center;verticalAlign=middle;whiteSpace=wrap;rounded=0;fontSize=20;" vertex="1" parent="1">
          <mxGeometry x="540" y="390" width="160" height="30" as="geometry" />
        </mxCell>
        <mxCell id="RZpJEG1By-xURKVi8tbB-9" style="edgeStyle=orthogonalEdgeStyle;rounded=0;orthogonalLoop=1;jettySize=auto;html=1;exitX=0;exitY=0.5;exitDx=0;exitDy=0;entryX=1;entryY=0.75;entryDx=0;entryDy=0;" edge="1" parent="1" source="dC-tV4f93UpBQwY4O5xS-3" target="RZpJEG1By-xURKVi8tbB-2">
          <mxGeometry relative="1" as="geometry" />
        </mxCell>
        <mxCell id="RZpJEG1By-xURKVi8tbB-10" value="Success/ Failure&amp;nbsp;&lt;div&gt;Status&lt;/div&gt;" style="text;html=1;align=center;verticalAlign=middle;whiteSpace=wrap;rounded=0;fontSize=20;" vertex="1" parent="1">
          <mxGeometry x="536.25" y="440" width="167.5" height="60" as="geometry" />
        </mxCell>
        <mxCell id="g79Zfue2bt3WvJ_XDatx-1" value="" style="group" vertex="1" connectable="0" parent="1">
          <mxGeometry x="40" y="560" width="160" height="120" as="geometry" />
        </mxCell>
        <mxCell id="g79Zfue2bt3WvJ_XDatx-2" value="5" style="rounded=0;whiteSpace=wrap;html=1;fontStyle=1;fontSize=20;" vertex="1" parent="g79Zfue2bt3WvJ_XDatx-1">
          <mxGeometry width="160" height="40" as="geometry" />
        </mxCell>
        <mxCell id="g79Zfue2bt3WvJ_XDatx-3" value="View Universities and Courses" style="rounded=0;whiteSpace=wrap;html=1;fontSize=15;" vertex="1" parent="g79Zfue2bt3WvJ_XDatx-1">
          <mxGeometry y="40" width="160" height="80" as="geometry" />
        </mxCell>
        <mxCell id="g79Zfue2bt3WvJ_XDatx-4" value="Admin" style="rounded=0;whiteSpace=wrap;html=1;fontStyle=1;fontSize=20;" vertex="1" parent="1">
          <mxGeometry x="400" y="610" width="120" height="40" as="geometry" />
        </mxCell>
        <mxCell id="g79Zfue2bt3WvJ_XDatx-11" style="edgeStyle=orthogonalEdgeStyle;rounded=0;orthogonalLoop=1;jettySize=auto;html=1;exitX=1;exitY=0.25;exitDx=0;exitDy=0;entryX=0;entryY=0.25;entryDx=0;entryDy=0;" edge="1" parent="1" source="g79Zfue2bt3WvJ_XDatx-3" target="g79Zfue2bt3WvJ_XDatx-4">
          <mxGeometry relative="1" as="geometry" />
        </mxCell>
        <mxCell id="g79Zfue2bt3WvJ_XDatx-12" style="edgeStyle=orthogonalEdgeStyle;rounded=0;orthogonalLoop=1;jettySize=auto;html=1;exitX=1;exitY=0.5;exitDx=0;exitDy=0;entryX=0;entryY=0.75;entryDx=0;entryDy=0;" edge="1" parent="1" source="g79Zfue2bt3WvJ_XDatx-3" target="g79Zfue2bt3WvJ_XDatx-4">
          <mxGeometry relative="1" as="geometry" />
        </mxCell>
        <mxCell id="g79Zfue2bt3WvJ_XDatx-13" value="Course Details" style="text;html=1;align=center;verticalAlign=middle;whiteSpace=wrap;rounded=0;fontSize=20;" vertex="1" parent="1">
          <mxGeometry x="220" y="590" width="160" height="30" as="geometry" />
        </mxCell>
        <mxCell id="g79Zfue2bt3WvJ_XDatx-14" value="University Details" style="text;html=1;align=center;verticalAlign=middle;whiteSpace=wrap;rounded=0;fontSize=20;" vertex="1" parent="1">
          <mxGeometry x="220" y="640" width="160" height="30" as="geometry" />
        </mxCell>
        <mxCell id="g79Zfue2bt3WvJ_XDatx-15" style="edgeStyle=orthogonalEdgeStyle;rounded=0;orthogonalLoop=1;jettySize=auto;html=1;exitX=0;exitY=0.25;exitDx=0;exitDy=0;entryX=1;entryY=0.25;entryDx=0;entryDy=0;" edge="1" parent="1" source="AWDsFJmBMONSogt2A3TP-3" target="g79Zfue2bt3WvJ_XDatx-4">
          <mxGeometry relative="1" as="geometry" />
        </mxCell>
        <mxCell id="g79Zfue2bt3WvJ_XDatx-16" style="edgeStyle=orthogonalEdgeStyle;rounded=0;orthogonalLoop=1;jettySize=auto;html=1;exitX=0;exitY=0.5;exitDx=0;exitDy=0;entryX=1;entryY=0.75;entryDx=0;entryDy=0;" edge="1" parent="1" source="AWDsFJmBMONSogt2A3TP-3" target="g79Zfue2bt3WvJ_XDatx-4">
          <mxGeometry relative="1" as="geometry" />
        </mxCell>
        <mxCell id="g79Zfue2bt3WvJ_XDatx-17" value="Course Details" style="text;html=1;align=center;verticalAlign=middle;whiteSpace=wrap;rounded=0;fontSize=20;" vertex="1" parent="1">
          <mxGeometry x="540" y="590" width="160" height="30" as="geometry" />
        </mxCell>
        <mxCell id="g79Zfue2bt3WvJ_XDatx-18" value="University Details" style="text;html=1;align=center;verticalAlign=middle;whiteSpace=wrap;rounded=0;fontSize=20;" vertex="1" parent="1">
          <mxGeometry x="540" y="640" width="160" height="30" as="geometry" />
        </mxCell>
        <mxCell id="g79Zfue2bt3WvJ_XDatx-19" style="edgeStyle=orthogonalEdgeStyle;rounded=0;orthogonalLoop=1;jettySize=auto;html=1;exitX=0.25;exitY=1;exitDx=0;exitDy=0;entryX=0.75;entryY=1;entryDx=0;entryDy=0;" edge="1" parent="1" source="AWDsFJmBMONSogt2A3TP-3" target="g79Zfue2bt3WvJ_XDatx-4">
          <mxGeometry relative="1" as="geometry" />
        </mxCell>
        <mxCell id="g79Zfue2bt3WvJ_XDatx-20" value="Success/ Failure Status" style="text;html=1;align=center;verticalAlign=middle;whiteSpace=wrap;rounded=0;fontSize=20;" vertex="1" parent="1">
          <mxGeometry x="511.25" y="700" width="217.5" height="30" as="geometry" />
        </mxCell>
        <mxCell id="g79Zfue2bt3WvJ_XDatx-21" value="Public" style="rounded=0;whiteSpace=wrap;html=1;fontStyle=1;fontSize=20;" vertex="1" parent="1">
          <mxGeometry x="400" y="760" width="120" height="40" as="geometry" />
        </mxCell>
        <mxCell id="g79Zfue2bt3WvJ_XDatx-22" style="edgeStyle=orthogonalEdgeStyle;rounded=0;orthogonalLoop=1;jettySize=auto;html=1;exitX=0.75;exitY=1;exitDx=0;exitDy=0;entryX=0;entryY=0.25;entryDx=0;entryDy=0;" edge="1" parent="1" source="g79Zfue2bt3WvJ_XDatx-3" target="g79Zfue2bt3WvJ_XDatx-21">
          <mxGeometry relative="1" as="geometry" />
        </mxCell>
        <mxCell id="g79Zfue2bt3WvJ_XDatx-23" style="edgeStyle=orthogonalEdgeStyle;rounded=0;orthogonalLoop=1;jettySize=auto;html=1;exitX=0.5;exitY=1;exitDx=0;exitDy=0;entryX=0;entryY=0.75;entryDx=0;entryDy=0;" edge="1" parent="1" source="g79Zfue2bt3WvJ_XDatx-3" target="g79Zfue2bt3WvJ_XDatx-21">
          <mxGeometry relative="1" as="geometry" />
        </mxCell>
        <mxCell id="g79Zfue2bt3WvJ_XDatx-24" value="Course Details" style="text;html=1;align=center;verticalAlign=middle;whiteSpace=wrap;rounded=0;fontSize=20;" vertex="1" parent="1">
          <mxGeometry x="197" y="740" width="160" height="30" as="geometry" />
        </mxCell>
        <mxCell id="g79Zfue2bt3WvJ_XDatx-25" value="University Details" style="text;html=1;align=center;verticalAlign=middle;whiteSpace=wrap;rounded=0;fontSize=20;" vertex="1" parent="1">
          <mxGeometry x="179" y="790" width="160" height="30" as="geometry" />
        </mxCell>
        <mxCell id="OEzYGBAoqm68Jhb2j-O6-1" value="" style="group" vertex="1" connectable="0" parent="1">
          <mxGeometry x="320" y="80" width="160" height="40" as="geometry" />
        </mxCell>
        <mxCell id="OEzYGBAoqm68Jhb2j-O6-2" value="D1" style="whiteSpace=wrap;html=1;aspect=fixed;fontStyle=1;fontSize=20;" vertex="1" parent="OEzYGBAoqm68Jhb2j-O6-1">
          <mxGeometry width="40" height="40" as="geometry" />
        </mxCell>
        <mxCell id="OEzYGBAoqm68Jhb2j-O6-3" value="Account" style="rounded=0;whiteSpace=wrap;html=1;fontStyle=0;fontSize=20;" vertex="1" parent="OEzYGBAoqm68Jhb2j-O6-1">
          <mxGeometry x="40" width="120" height="40" as="geometry" />
        </mxCell>
        <mxCell id="OEzYGBAoqm68Jhb2j-O6-9" style="edgeStyle=orthogonalEdgeStyle;rounded=0;orthogonalLoop=1;jettySize=auto;html=1;exitX=0;exitY=0.5;exitDx=0;exitDy=0;entryX=0.5;entryY=0;entryDx=0;entryDy=0;" edge="1" parent="1" source="OEzYGBAoqm68Jhb2j-O6-2" target="ukn1xS1mOlt8Ee56fto0-5">
          <mxGeometry relative="1" as="geometry" />
        </mxCell>
        <mxCell id="OEzYGBAoqm68Jhb2j-O6-10" value="Admin Credentials" style="text;html=1;align=center;verticalAlign=middle;whiteSpace=wrap;rounded=0;fontSize=20;" vertex="1" parent="1">
          <mxGeometry x="136" y="70" width="170" height="30" as="geometry" />
        </mxCell>
        <mxCell id="mhTRvsaWzDnStoNBAfkR-1" value="" style="group" vertex="1" connectable="0" parent="1">
          <mxGeometry x="620" y="40" width="160" height="40" as="geometry" />
        </mxCell>
        <mxCell id="mhTRvsaWzDnStoNBAfkR-2" value="D2" style="whiteSpace=wrap;html=1;aspect=fixed;fontStyle=1;fontSize=20;" vertex="1" parent="mhTRvsaWzDnStoNBAfkR-1">
          <mxGeometry width="40" height="40" as="geometry" />
        </mxCell>
        <mxCell id="mhTRvsaWzDnStoNBAfkR-3" value="University" style="rounded=0;whiteSpace=wrap;html=1;fontStyle=0;fontSize=20;" vertex="1" parent="mhTRvsaWzDnStoNBAfkR-1">
          <mxGeometry x="40" width="120" height="40" as="geometry" />
        </mxCell>
        <mxCell id="mhTRvsaWzDnStoNBAfkR-4" value="" style="group" vertex="1" connectable="0" parent="1">
          <mxGeometry x="920" y="40" width="160" height="40" as="geometry" />
        </mxCell>
        <mxCell id="mhTRvsaWzDnStoNBAfkR-5" value="D3" style="whiteSpace=wrap;html=1;aspect=fixed;fontStyle=1;fontSize=20;" vertex="1" parent="mhTRvsaWzDnStoNBAfkR-4">
          <mxGeometry width="40" height="40" as="geometry" />
        </mxCell>
        <mxCell id="mhTRvsaWzDnStoNBAfkR-6" value="Course" style="rounded=0;whiteSpace=wrap;html=1;fontStyle=0;fontSize=20;" vertex="1" parent="mhTRvsaWzDnStoNBAfkR-4">
          <mxGeometry x="40" width="120" height="40" as="geometry" />
        </mxCell>
        <mxCell id="mhTRvsaWzDnStoNBAfkR-7" style="edgeStyle=orthogonalEdgeStyle;rounded=0;orthogonalLoop=1;jettySize=auto;html=1;entryX=1;entryY=0.5;entryDx=0;entryDy=0;" edge="1" parent="1" source="ukn1xS1mOlt8Ee56fto0-2" target="mhTRvsaWzDnStoNBAfkR-3">
          <mxGeometry relative="1" as="geometry" />
        </mxCell>
        <mxCell id="mhTRvsaWzDnStoNBAfkR-10" style="edgeStyle=orthogonalEdgeStyle;rounded=0;orthogonalLoop=1;jettySize=auto;html=1;entryX=0.25;entryY=1;entryDx=0;entryDy=0;" edge="1" parent="1" source="ukn1xS1mOlt8Ee56fto0-2" target="mhTRvsaWzDnStoNBAfkR-6">
          <mxGeometry relative="1" as="geometry" />
        </mxCell>
        <mxCell id="mhTRvsaWzDnStoNBAfkR-12" style="edgeStyle=orthogonalEdgeStyle;rounded=0;orthogonalLoop=1;jettySize=auto;html=1;exitX=1;exitY=0.25;exitDx=0;exitDy=0;entryX=0.25;entryY=1;entryDx=0;entryDy=0;" edge="1" parent="1" source="dC-tV4f93UpBQwY4O5xS-3" target="mhTRvsaWzDnStoNBAfkR-6">
          <mxGeometry relative="1" as="geometry" />
        </mxCell>
        <mxCell id="mhTRvsaWzDnStoNBAfkR-13" value="Course&amp;nbsp;&lt;div&gt;&lt;span style=&quot;background-color: initial;&quot;&gt;Details&lt;/span&gt;&lt;/div&gt;" style="text;html=1;align=center;verticalAlign=middle;whiteSpace=wrap;rounded=0;fontSize=20;rotation=0;" vertex="1" parent="1">
          <mxGeometry x="893.75" y="130" width="90" height="50" as="geometry" />
        </mxCell>
        <mxCell id="mhTRvsaWzDnStoNBAfkR-14" value="Course&amp;nbsp;&lt;span style=&quot;background-color: initial;&quot;&gt;Details&lt;/span&gt;" style="text;html=1;align=center;verticalAlign=middle;whiteSpace=wrap;rounded=0;fontSize=20;rotation=-90;" vertex="1" parent="1">
          <mxGeometry x="920" y="226.25" width="165" height="30" as="geometry" />
        </mxCell>
        <mxCell id="mhTRvsaWzDnStoNBAfkR-15" style="edgeStyle=orthogonalEdgeStyle;rounded=0;orthogonalLoop=1;jettySize=auto;html=1;entryX=1;entryY=0.25;entryDx=0;entryDy=0;exitX=0.75;exitY=1;exitDx=0;exitDy=0;" edge="1" parent="1" source="mhTRvsaWzDnStoNBAfkR-6" target="AWDsFJmBMONSogt2A3TP-3">
          <mxGeometry relative="1" as="geometry">
            <Array as="points">
              <mxPoint x="1050" y="620" />
            </Array>
          </mxGeometry>
        </mxCell>
        <mxCell id="mhTRvsaWzDnStoNBAfkR-17" value="University&amp;nbsp;&lt;div&gt;Details&lt;/div&gt;" style="text;html=1;align=center;verticalAlign=middle;whiteSpace=wrap;rounded=0;fontSize=20;rotation=-90;" vertex="1" parent="1">
          <mxGeometry x="771" y="80" width="105" height="40" as="geometry" />
        </mxCell>
        <mxCell id="mhTRvsaWzDnStoNBAfkR-18" style="edgeStyle=orthogonalEdgeStyle;rounded=0;orthogonalLoop=1;jettySize=auto;html=1;exitX=0;exitY=0.25;exitDx=0;exitDy=0;entryX=0;entryY=0.25;entryDx=0;entryDy=0;" edge="1" parent="1" source="3s6k_-YkVU42opj8ve_b-3" target="mhTRvsaWzDnStoNBAfkR-2">
          <mxGeometry relative="1" as="geometry" />
        </mxCell>
        <mxCell id="mhTRvsaWzDnStoNBAfkR-19" value="University Details" style="text;html=1;align=center;verticalAlign=middle;whiteSpace=wrap;rounded=0;fontSize=20;" vertex="1" parent="1">
          <mxGeometry x="250" y="20" width="160" height="30" as="geometry" />
        </mxCell>
        <mxCell id="mhTRvsaWzDnStoNBAfkR-20" style="edgeStyle=orthogonalEdgeStyle;rounded=0;orthogonalLoop=1;jettySize=auto;html=1;exitX=0.25;exitY=0;exitDx=0;exitDy=0;entryX=0;entryY=0.25;entryDx=0;entryDy=0;" edge="1" parent="1" source="mhTRvsaWzDnStoNBAfkR-3" target="g79Zfue2bt3WvJ_XDatx-2">
          <mxGeometry relative="1" as="geometry">
            <Array as="points">
              <mxPoint x="690" />
              <mxPoint x="-20" />
              <mxPoint x="-20" y="570" />
            </Array>
          </mxGeometry>
        </mxCell>
        <mxCell id="mhTRvsaWzDnStoNBAfkR-21" value="University Details" style="text;html=1;align=center;verticalAlign=middle;whiteSpace=wrap;rounded=0;fontSize=20;rotation=-90;" vertex="1" parent="1">
          <mxGeometry x="-120" y="262.5" width="160" height="30" as="geometry" />
        </mxCell>
        <mxCell id="mhTRvsaWzDnStoNBAfkR-23" style="edgeStyle=orthogonalEdgeStyle;rounded=0;orthogonalLoop=1;jettySize=auto;html=1;exitX=0.75;exitY=1;exitDx=0;exitDy=0;entryX=0;entryY=0;entryDx=0;entryDy=0;" edge="1" parent="1" source="mhTRvsaWzDnStoNBAfkR-6" target="g79Zfue2bt3WvJ_XDatx-3">
          <mxGeometry relative="1" as="geometry">
            <Array as="points">
              <mxPoint x="1050" y="840" />
              <mxPoint x="10" y="840" />
              <mxPoint x="10" y="600" />
            </Array>
          </mxGeometry>
        </mxCell>
        <mxCell id="mhTRvsaWzDnStoNBAfkR-24" value="Course&amp;nbsp;&lt;span style=&quot;background-color: initial;&quot;&gt;Details&lt;/span&gt;" style="text;html=1;align=center;verticalAlign=middle;whiteSpace=wrap;rounded=0;fontSize=20;rotation=-90;" vertex="1" parent="1">
          <mxGeometry x="990" y="226.25" width="165" height="30" as="geometry" />
        </mxCell>
        <mxCell id="mhTRvsaWzDnStoNBAfkR-25" style="edgeStyle=orthogonalEdgeStyle;rounded=0;orthogonalLoop=1;jettySize=auto;html=1;exitX=0.5;exitY=0;exitDx=0;exitDy=0;entryX=0.25;entryY=0;entryDx=0;entryDy=0;" edge="1" parent="1" source="mhTRvsaWzDnStoNBAfkR-2" target="AWDsFJmBMONSogt2A3TP-2">
          <mxGeometry relative="1" as="geometry">
            <Array as="points">
              <mxPoint x="640" y="10" />
              <mxPoint y="10" />
              <mxPoint y="540" />
              <mxPoint x="760" y="540" />
            </Array>
          </mxGeometry>
        </mxCell>
        <mxCell id="mhTRvsaWzDnStoNBAfkR-26" value="University Details" style="text;html=1;align=center;verticalAlign=middle;whiteSpace=wrap;rounded=0;fontSize=20;" vertex="1" parent="1">
          <mxGeometry x="380" y="510" width="160" height="30" as="geometry" />
        </mxCell>
        <mxCell id="mhTRvsaWzDnStoNBAfkR-27" value="Course&amp;nbsp;&lt;span style=&quot;background-color: initial;&quot;&gt;Details&lt;/span&gt;" style="text;html=1;align=center;verticalAlign=middle;whiteSpace=wrap;rounded=0;fontSize=20;rotation=0;" vertex="1" parent="1">
          <mxGeometry x="893.75" y="590" width="150" height="30" as="geometry" />
        </mxCell>
      </root>
    </mxGraphModel>
  </diagram>
</mxfile>
